G04*
G04 #@! TF.GenerationSoftware,Altium Limited,CircuitMaker,2.2.1 (2.2.1.6)*
G04*
G04 Layer_Color=15314666*
%FSLAX44Y44*%
%MOMM*%
G71*
G04*
G04 #@! TF.SameCoordinates,B7FF0B77-2EFF-419A-B724-F2A86093BB65*
G04*
G04*
G04 #@! TF.FilePolarity,Positive*
G04*
G01*
G75*
%ADD14C,0.0500*%
%ADD15C,0.1000*%
G54D14*
X486750Y181500D02*
X512750D01*
X486750Y224500D02*
X512750D01*
X486750Y181500D02*
Y224500D01*
X512750Y181500D02*
Y224500D01*
X291250Y228500D02*
X317250D01*
X291250Y185500D02*
X317250D01*
Y228500D01*
X291250Y185500D02*
Y228500D01*
X435650Y375500D02*
Y424500D01*
Y375500D02*
X474500D01*
X435650Y424500D02*
X474500D01*
Y375500D02*
Y424500D01*
X335650Y375500D02*
Y424500D01*
Y375500D02*
X374500D01*
X335650Y424500D02*
X374500D01*
Y375500D02*
Y424500D01*
X535650Y366000D02*
X574500D01*
Y434000D01*
X535650D02*
X574500D01*
X535650Y366000D02*
Y434000D01*
X235650Y366000D02*
X274500D01*
Y434000D01*
X235650D02*
X274500D01*
X235650Y366000D02*
Y434000D01*
G54D15*
X199200Y342700D02*
X300800D01*
Y317300D02*
Y342700D01*
X199200Y317300D02*
X300800D01*
X199200D02*
Y342700D01*
X250000Y323650D02*
Y336350D01*
X243650Y330000D02*
X256350D01*
X400000Y225000D02*
Y235000D01*
X395000Y230000D02*
X405000D01*
X499750Y198000D02*
Y208000D01*
X494750Y203000D02*
X504750D01*
X304250Y202000D02*
Y212000D01*
X299250Y207000D02*
X309250D01*
X380000Y335000D02*
Y345000D01*
X375000Y340000D02*
X385000D01*
X430000Y335000D02*
Y345000D01*
X425000Y340000D02*
X435000D01*
X323800Y38400D02*
Y101900D01*
X342850Y159050D02*
X457150D01*
X342850Y101900D02*
Y159050D01*
X457150Y101900D02*
Y159050D01*
X476200Y38400D02*
Y101900D01*
X342850Y6650D02*
X457150D01*
Y38400D01*
X323800Y101900D02*
X342850D01*
X457150D02*
X476200D01*
X457150Y38400D02*
X476200D01*
X323800D02*
X342850D01*
Y6650D02*
Y38400D01*
X543650Y280000D02*
X556350D01*
X550000Y273650D02*
Y286350D01*
X600800Y267300D02*
Y292700D01*
X499200D02*
X600800D01*
X499200Y267300D02*
Y292700D01*
Y267300D02*
X600800D01*
X543650Y330000D02*
X556350D01*
X550000Y323650D02*
Y336350D01*
X499200Y317300D02*
Y342700D01*
Y317300D02*
X600800D01*
Y342700D01*
X499200D02*
X600800D01*
X243650Y290000D02*
X256350D01*
X250000Y283650D02*
Y296350D01*
X300800Y277300D02*
Y302700D01*
X199200D02*
X300800D01*
X199200Y277300D02*
Y302700D01*
Y277300D02*
X300800D01*
X445000Y400000D02*
X455000D01*
X450000Y395000D02*
Y405000D01*
X345000Y400000D02*
X355000D01*
X350000Y395000D02*
Y405000D01*
X550000Y395000D02*
Y405000D01*
X545000Y400000D02*
X555000D01*
X250000Y395000D02*
Y405000D01*
X245000Y400000D02*
X255000D01*
M02*
