G04*
G04 #@! TF.GenerationSoftware,Altium Limited,CircuitMaker,2.2.1 (2.2.1.6)*
G04*
G04 Layer_Color=128*
%FSLAX44Y44*%
%MOMM*%
G71*
G04*
G04 #@! TF.SameCoordinates,B7FF0B77-2EFF-419A-B724-F2A86093BB65*
G04*
G04*
G04 #@! TF.FilePolarity,Positive*
G04*
G01*
G75*
%ADD57C,0.0508*%
G54D57*
X468305Y306200D02*
X477195D01*
X472750Y301755D02*
Y310645D01*
X468305Y280800D02*
X477195D01*
X472750Y276355D02*
Y285245D01*
X468305Y318900D02*
X477195D01*
X472750Y314455D02*
Y323345D01*
X468305Y268100D02*
X477195D01*
X472750Y263655D02*
Y272545D01*
X94920Y355776D02*
X105080D01*
X100000Y350696D02*
Y360856D01*
X94920Y384000D02*
X105080D01*
X100000Y378920D02*
Y389080D01*
X207399Y330000D02*
X216399D01*
X211899Y325500D02*
Y334500D01*
X283599Y330000D02*
X292599D01*
X288099Y325500D02*
Y334500D01*
X433600Y191900D02*
X442600D01*
X438100Y187400D02*
Y196400D01*
X433600Y217300D02*
X442600D01*
X438100Y212800D02*
Y221800D01*
X433600Y242700D02*
X442600D01*
X438100Y238200D02*
Y247200D01*
X433600Y268100D02*
X442600D01*
X438100Y263600D02*
Y272600D01*
X357400Y191900D02*
X366400D01*
X361900Y187400D02*
Y196400D01*
X357400Y217300D02*
X366400D01*
X361900Y212800D02*
Y221800D01*
X357400Y242700D02*
X366400D01*
X361900Y238200D02*
Y247200D01*
X357400Y268100D02*
X366400D01*
X361900Y263600D02*
Y272600D01*
X694920Y384000D02*
X705080D01*
X700000Y378920D02*
Y389080D01*
X694920Y355776D02*
X705080D01*
X700000Y350696D02*
Y360856D01*
X731634Y50460D02*
X763634D01*
X747634Y34460D02*
Y66460D01*
X368250Y140000D02*
X380950D01*
X374600Y133650D02*
Y146350D01*
X393650Y140000D02*
X406350D01*
X400000Y133650D02*
Y146350D01*
X419050Y140000D02*
X431750D01*
X425400Y133650D02*
Y146350D01*
X337135Y70150D02*
X361265D01*
X349200Y58085D02*
Y82215D01*
X438735Y70150D02*
X462865D01*
X450800Y58085D02*
Y82215D01*
X507401Y280000D02*
X516401D01*
X511901Y275500D02*
Y284500D01*
X583601Y280000D02*
X592601D01*
X588101Y275500D02*
Y284500D01*
X34000Y450000D02*
X66000D01*
X50000Y434000D02*
Y466000D01*
X734000Y450000D02*
X766000D01*
X750000Y434000D02*
Y466000D01*
X146190Y190000D02*
X153810D01*
X150000Y186190D02*
Y193810D01*
X120790Y190000D02*
X128410D01*
X124600Y186190D02*
Y193810D01*
X583599Y330000D02*
X592599D01*
X588099Y325500D02*
Y334500D01*
X507399Y330000D02*
X516399D01*
X511899Y325500D02*
Y334500D01*
X207401Y290000D02*
X216401D01*
X211901Y285500D02*
Y294500D01*
X283601Y290000D02*
X292601D01*
X288101Y285500D02*
Y294500D01*
X163300Y100000D02*
X178300D01*
X170800Y92500D02*
Y107500D01*
X112500Y100000D02*
X127500D01*
X120000Y92500D02*
Y107500D01*
X663300Y100000D02*
X678300D01*
X670800Y92500D02*
Y107500D01*
X612500Y100000D02*
X627500D01*
X620000Y92500D02*
Y107500D01*
X446000Y374600D02*
X454000D01*
X450000Y370600D02*
Y378600D01*
X446000Y400000D02*
X454000D01*
X450000Y396000D02*
Y404000D01*
X446000Y425400D02*
X454000D01*
X450000Y421400D02*
Y429400D01*
X346000Y374600D02*
X354000D01*
X350000Y370600D02*
Y378600D01*
X346000Y400000D02*
X354000D01*
X350000Y396000D02*
Y404000D01*
X346000Y425400D02*
X354000D01*
X350000Y421400D02*
Y429400D01*
X546000Y426000D02*
X554000D01*
X550000Y422000D02*
Y430000D01*
X546000Y374000D02*
X554000D01*
X550000Y370000D02*
Y378000D01*
X546000Y400000D02*
X554000D01*
X550000Y396000D02*
Y404000D01*
X246000Y426000D02*
X254000D01*
X250000Y422000D02*
Y430000D01*
X246000Y374000D02*
X254000D01*
X250000Y370000D02*
Y378000D01*
X246000Y400000D02*
X254000D01*
X250000Y396000D02*
Y404000D01*
X34000Y50000D02*
X66000D01*
X50000Y34000D02*
Y66000D01*
X300944Y180000D02*
X308056D01*
X304500Y176444D02*
Y183556D01*
X496194Y229750D02*
X503306D01*
X499750Y226194D02*
Y233306D01*
M02*
