M48
;Layer_Color=6321
;FILE_FORMAT=4:4
METRIC,LZ
;TYPE=PLATED
T1F00S00C0.7112
T2F00S00C0.7620
T3F00S00C0.8000
T4F00S00C0.8890
T5F00S00C0.9000
T6F00S00C1.0160
T7F00S00C1.2700
T8F00S00C1.5000
T9F00S00C2.4130
T10F00S00C3.2000
%
T01
X003045Y0018
X0049975Y0022975
T02
X0015Y0019
X001246
T03
X0055Y00374
Y004
Y00426
X0045Y004254
Y004
Y003746
X0035
Y004
Y004254
X0025Y00426
Y004
Y00374
T04
X0047275Y002681
Y002808
Y003062
Y003189
T05
X00588101Y0028
X00588099Y0033
X00511899
X00511901Y0028
X004381Y002681
Y002427
Y002173
Y001919
X003619
Y002173
Y002427
Y002681
X00288101Y0029
X00288099Y0033
X00211899
X00211901Y0029
T06
X007Y00355776
Y00384
X001
Y00355776
T07
X003746Y0014
X004
X004254
T08
X0012Y001
X001708
X0062
X006708
T09
X003492Y0007015
X004508
T10
X0005Y0005
X00747634Y0005046
X0075Y0045
X0005
M30
