G04*
G04 #@! TF.GenerationSoftware,Altium Limited,CircuitMaker,2.2.1 (2.2.1.6)*
G04*
G04 Layer_Color=8150272*
%FSLAX44Y44*%
%MOMM*%
G71*
G04*
G04 #@! TF.SameCoordinates,B7FF0B77-2EFF-419A-B724-F2A86093BB65*
G04*
G04*
G04 #@! TF.FilePolarity,Negative*
G04*
G01*
G75*
%ADD21O,1.7272X3.2512*%
%ADD22C,1.7272*%
%ADD23P,1.8695X8X292.5*%
%ADD24C,1.9812*%
%ADD25C,2.1082*%
%ADD26R,2.1082X2.1082*%
G04:AMPARAMS|DCode=27|XSize=1.9812mm|YSize=2.7432mm|CornerRadius=0.5461mm|HoleSize=0mm|Usage=FLASHONLY|Rotation=180.000|XOffset=0mm|YOffset=0mm|HoleType=Round|Shape=RoundedRectangle|*
%AMROUNDEDRECTD27*
21,1,1.9812,1.6510,0,0,180.0*
21,1,0.8890,2.7432,0,0,180.0*
1,1,1.0922,-0.4445,0.8255*
1,1,1.0922,0.4445,0.8255*
1,1,1.0922,0.4445,-0.8255*
1,1,1.0922,-0.4445,-0.8255*
%
%ADD27ROUNDEDRECTD27*%
%ADD28R,4.2672X4.2672*%
%ADD29R,1.7272X1.7272*%
%ADD30C,2.4032*%
%ADD31C,2.0032*%
%ADD32R,2.0032X2.0032*%
%ADD33R,1.6032X1.6032*%
%ADD34C,1.6032*%
%ADD35C,1.4732*%
G54D21*
X472750Y313820D02*
D03*
Y273180D02*
D03*
G54D22*
Y318900D02*
D03*
Y268100D02*
D03*
X747634Y50460D02*
D03*
X50000Y450000D02*
D03*
X750000D02*
D03*
X150000Y190000D02*
D03*
X50000Y50000D02*
D03*
G54D23*
X100000Y355776D02*
D03*
Y384000D02*
D03*
X700000D02*
D03*
Y355776D02*
D03*
G54D24*
X211899Y330000D02*
D03*
X288099D02*
D03*
X511901Y280000D02*
D03*
X588101D02*
D03*
X588099Y330000D02*
D03*
X511899D02*
D03*
X211901Y290000D02*
D03*
X288101D02*
D03*
G54D25*
X438100Y191900D02*
D03*
Y217300D02*
D03*
Y242700D02*
D03*
Y268100D02*
D03*
X361900Y191900D02*
D03*
Y217300D02*
D03*
Y242700D02*
D03*
G54D26*
Y268100D02*
D03*
G54D27*
X374600Y140000D02*
D03*
X400000D02*
D03*
X425400D02*
D03*
G54D28*
X349200Y70150D02*
D03*
X450800D02*
D03*
G54D29*
X124600Y190000D02*
D03*
G54D30*
X170800Y100000D02*
D03*
X120000D02*
D03*
X670800D02*
D03*
X620000D02*
D03*
G54D31*
X450000Y374600D02*
D03*
Y400000D02*
D03*
X350000Y374600D02*
D03*
Y400000D02*
D03*
G54D32*
X450000Y425400D02*
D03*
X350000D02*
D03*
G54D33*
X550000Y426000D02*
D03*
X250000D02*
D03*
G54D34*
X550000Y374000D02*
D03*
Y400000D02*
D03*
X250000Y374000D02*
D03*
Y400000D02*
D03*
G54D35*
X304500Y180000D02*
D03*
X499750Y229750D02*
D03*
M02*
