G04*
G04 #@! TF.GenerationSoftware,Altium Limited,CircuitMaker,2.2.1 (2.2.1.6)*
G04*
G04 Layer_Physical_Order=2*
G04 Layer_Color=11436288*
%FSLAX44Y44*%
%MOMM*%
G71*
G04*
G04 #@! TF.SameCoordinates,B7FF0B77-2EFF-419A-B724-F2A86093BB65*
G04*
G04*
G04 #@! TF.FilePolarity,Positive*
G04*
G01*
G75*
%ADD10C,0.2540*%
%ADD37C,1.0000*%
%ADD39R,1.8796X1.8796*%
%ADD40O,1.5240X3.0480*%
%ADD41C,1.5240*%
%ADD42P,1.6496X8X292.5*%
%ADD43C,1.7780*%
%ADD44C,1.9050*%
%ADD45R,1.9050X1.9050*%
G04:AMPARAMS|DCode=46|XSize=1.778mm|YSize=2.54mm|CornerRadius=0.4445mm|HoleSize=0mm|Usage=FLASHONLY|Rotation=180.000|XOffset=0mm|YOffset=0mm|HoleType=Round|Shape=RoundedRectangle|*
%AMROUNDEDRECTD46*
21,1,1.7780,1.6510,0,0,180.0*
21,1,0.8890,2.5400,0,0,180.0*
1,1,0.8890,-0.4445,0.8255*
1,1,0.8890,0.4445,0.8255*
1,1,0.8890,0.4445,-0.8255*
1,1,0.8890,-0.4445,-0.8255*
%
%ADD46ROUNDEDRECTD46*%
%ADD47R,4.0640X4.0640*%
%ADD48R,1.5240X1.5240*%
%ADD49C,2.2000*%
%ADD50C,1.8000*%
%ADD51R,1.8000X1.8000*%
%ADD52R,1.4000X1.4000*%
%ADD53C,1.4000*%
%ADD54C,1.2700*%
G36*
X756025Y495767D02*
X761947Y494589D01*
X767665Y492648D01*
X773081Y489977D01*
X778102Y486623D01*
X782641Y482641D01*
X786623Y478102D01*
X789977Y473081D01*
X792648Y467665D01*
X794589Y461948D01*
X795767Y456025D01*
X796150Y450176D01*
X796115Y450000D01*
Y50000D01*
X796150Y49824D01*
X795767Y43975D01*
X794589Y38052D01*
X792648Y32335D01*
X789977Y26919D01*
X786623Y21899D01*
X782641Y17359D01*
X778102Y13377D01*
X773081Y10023D01*
X767665Y7352D01*
X761947Y5411D01*
X756025Y4233D01*
X750176Y3850D01*
X750000Y3885D01*
X50000D01*
X49824Y3850D01*
X43975Y4233D01*
X38052Y5411D01*
X32335Y7352D01*
X26919Y10023D01*
X21899Y13377D01*
X17359Y17359D01*
X13377Y21899D01*
X10023Y26919D01*
X7352Y32335D01*
X5411Y38052D01*
X4233Y43975D01*
X3850Y49824D01*
X3885Y50000D01*
Y450000D01*
X3850Y450176D01*
X4233Y456025D01*
X5411Y461948D01*
X7352Y467665D01*
X10023Y473081D01*
X13377Y478102D01*
X17359Y482641D01*
X21899Y486623D01*
X26919Y489977D01*
X32335Y492648D01*
X38052Y494589D01*
X43975Y495767D01*
X49824Y496150D01*
X50000Y496115D01*
X750000D01*
X750176Y496150D01*
X756025Y495767D01*
D02*
G37*
%LPC*%
G36*
X751826Y468540D02*
X748174D01*
X744592Y467827D01*
X741218Y466430D01*
X738181Y464401D01*
X735599Y461819D01*
X733570Y458782D01*
X732172Y455408D01*
X731460Y451826D01*
Y448174D01*
X732172Y444592D01*
X733570Y441218D01*
X735599Y438181D01*
X738181Y435599D01*
X741218Y433570D01*
X744592Y432173D01*
X748174Y431460D01*
X751826D01*
X755408Y432173D01*
X758782Y433570D01*
X761819Y435599D01*
X764401Y438181D01*
X766430Y441218D01*
X767828Y444592D01*
X768540Y448174D01*
Y451826D01*
X767828Y455408D01*
X766430Y458782D01*
X764401Y461819D01*
X761819Y464401D01*
X758782Y466430D01*
X755408Y467827D01*
X751826Y468540D01*
D02*
G37*
G36*
X51826D02*
X48174D01*
X44592Y467827D01*
X41218Y466430D01*
X38181Y464401D01*
X35599Y461819D01*
X33570Y458782D01*
X32173Y455408D01*
X31460Y451826D01*
Y448174D01*
X32173Y444592D01*
X33570Y441218D01*
X35599Y438181D01*
X38181Y435599D01*
X41218Y433570D01*
X44592Y432173D01*
X48174Y431460D01*
X51826D01*
X55408Y432173D01*
X58782Y433570D01*
X61819Y435599D01*
X64401Y438181D01*
X66430Y441218D01*
X67828Y444592D01*
X68540Y448174D01*
Y451826D01*
X67828Y455408D01*
X66430Y458782D01*
X64401Y461819D01*
X61819Y464401D01*
X58782Y466430D01*
X55408Y467827D01*
X51826Y468540D01*
D02*
G37*
G36*
X559540Y435540D02*
X551270D01*
Y427270D01*
X559540D01*
Y435540D01*
D02*
G37*
G36*
X548730D02*
X540460D01*
Y427270D01*
X548730D01*
Y435540D01*
D02*
G37*
G36*
X259540D02*
X251270D01*
Y427270D01*
X259540D01*
Y435540D01*
D02*
G37*
G36*
X248730D02*
X240460D01*
Y427270D01*
X248730D01*
Y435540D01*
D02*
G37*
G36*
X559540Y424730D02*
X551270D01*
Y416460D01*
X559540D01*
Y424730D01*
D02*
G37*
G36*
X548730D02*
X540460D01*
Y416460D01*
X548730D01*
Y424730D01*
D02*
G37*
G36*
X259540D02*
X251270D01*
Y416460D01*
X259540D01*
Y424730D01*
D02*
G37*
G36*
X248730D02*
X240460D01*
Y416460D01*
X248730D01*
Y424730D01*
D02*
G37*
G36*
X461540Y436940D02*
X438460D01*
Y413860D01*
X461540D01*
Y436940D01*
D02*
G37*
G36*
X361540D02*
X338460D01*
Y413860D01*
X361540D01*
Y436940D01*
D02*
G37*
G36*
X551256Y409540D02*
X548744D01*
X546318Y408890D01*
X544142Y407634D01*
X542366Y405858D01*
X541110Y403682D01*
X540460Y401256D01*
Y398744D01*
X541110Y396318D01*
X542366Y394142D01*
X544142Y392366D01*
X546318Y391110D01*
X548744Y390460D01*
X551256D01*
X553682Y391110D01*
X555858Y392366D01*
X557634Y394142D01*
X558890Y396318D01*
X559540Y398744D01*
Y401256D01*
X558890Y403682D01*
X557634Y405858D01*
X555858Y407634D01*
X553682Y408890D01*
X551256Y409540D01*
D02*
G37*
G36*
X251256D02*
X248744D01*
X246318Y408890D01*
X244142Y407634D01*
X242366Y405858D01*
X241110Y403682D01*
X240460Y401256D01*
Y398744D01*
X241110Y396318D01*
X242366Y394142D01*
X244142Y392366D01*
X246318Y391110D01*
X248744Y390460D01*
X251256D01*
X253682Y391110D01*
X255858Y392366D01*
X257634Y394142D01*
X258890Y396318D01*
X259540Y398744D01*
Y401256D01*
X258890Y403682D01*
X257634Y405858D01*
X255858Y407634D01*
X253682Y408890D01*
X251256Y409540D01*
D02*
G37*
G36*
X451519Y411540D02*
X448481D01*
X445546Y410754D01*
X442914Y409234D01*
X440766Y407086D01*
X439246Y404454D01*
X438460Y401519D01*
Y398481D01*
X439246Y395546D01*
X440766Y392914D01*
X442914Y390766D01*
X445546Y389246D01*
X448481Y388460D01*
X451519D01*
X454454Y389246D01*
X457086Y390766D01*
X459234Y392914D01*
X460754Y395546D01*
X461540Y398481D01*
Y401519D01*
X460754Y404454D01*
X459234Y407086D01*
X457086Y409234D01*
X454454Y410754D01*
X451519Y411540D01*
D02*
G37*
G36*
X351519D02*
X348481D01*
X345546Y410754D01*
X342914Y409234D01*
X340766Y407086D01*
X339246Y404454D01*
X338460Y401519D01*
Y398481D01*
X339246Y395546D01*
X340766Y392914D01*
X342914Y390766D01*
X345546Y389246D01*
X348481Y388460D01*
X351519D01*
X354454Y389246D01*
X357086Y390766D01*
X359234Y392914D01*
X360754Y395546D01*
X361540Y398481D01*
Y401519D01*
X360754Y404454D01*
X359234Y407086D01*
X357086Y409234D01*
X354454Y410754D01*
X351519Y411540D01*
D02*
G37*
G36*
X705080Y394160D02*
X694920D01*
X689840Y389080D01*
Y378920D01*
X694920Y373840D01*
X705080D01*
X710160Y378920D01*
Y389080D01*
X705080Y394160D01*
D02*
G37*
G36*
X105080D02*
X94920D01*
X89840Y389080D01*
Y378920D01*
X94920Y373840D01*
X105080D01*
X110160Y378920D01*
Y389080D01*
X105080Y394160D01*
D02*
G37*
G36*
X551256Y383540D02*
X548744D01*
X546318Y382890D01*
X544142Y381634D01*
X542366Y379858D01*
X541110Y377682D01*
X540460Y375256D01*
Y372744D01*
X541110Y370318D01*
X542366Y368142D01*
X544142Y366366D01*
X546318Y365110D01*
X548744Y364460D01*
X551256D01*
X553682Y365110D01*
X555858Y366366D01*
X557634Y368142D01*
X558890Y370318D01*
X559540Y372744D01*
Y375256D01*
X558890Y377682D01*
X557634Y379858D01*
X555858Y381634D01*
X553682Y382890D01*
X551256Y383540D01*
D02*
G37*
G36*
X251256D02*
X248744D01*
X246318Y382890D01*
X244142Y381634D01*
X242366Y379858D01*
X241110Y377682D01*
X240460Y375256D01*
Y372744D01*
X241110Y370318D01*
X242366Y368142D01*
X244142Y366366D01*
X246318Y365110D01*
X248744Y364460D01*
X251256D01*
X253682Y365110D01*
X255858Y366366D01*
X257634Y368142D01*
X258890Y370318D01*
X259540Y372744D01*
Y375256D01*
X258890Y377682D01*
X257634Y379858D01*
X255858Y381634D01*
X253682Y382890D01*
X251256Y383540D01*
D02*
G37*
G36*
X451519Y386140D02*
X448481D01*
X445546Y385354D01*
X442914Y383834D01*
X440766Y381686D01*
X439246Y379054D01*
X438460Y376119D01*
Y373081D01*
X439246Y370146D01*
X440766Y367514D01*
X442914Y365366D01*
X445546Y363846D01*
X448481Y363060D01*
X451519D01*
X454454Y363846D01*
X457086Y365366D01*
X459234Y367514D01*
X460754Y370146D01*
X461540Y373081D01*
Y376119D01*
X460754Y379054D01*
X459234Y381686D01*
X457086Y383834D01*
X454454Y385354D01*
X451519Y386140D01*
D02*
G37*
G36*
X351519D02*
X348481D01*
X345546Y385354D01*
X342914Y383834D01*
X340766Y381686D01*
X339246Y379054D01*
X338460Y376119D01*
Y373081D01*
X339246Y370146D01*
X340766Y367514D01*
X342914Y365366D01*
X345546Y363846D01*
X348481Y363060D01*
X351519D01*
X354454Y363846D01*
X357086Y365366D01*
X359234Y367514D01*
X360754Y370146D01*
X361540Y373081D01*
Y376119D01*
X360754Y379054D01*
X359234Y381686D01*
X357086Y383834D01*
X354454Y385354D01*
X351519Y386140D01*
D02*
G37*
G36*
X705080Y365936D02*
X694920D01*
X689840Y360856D01*
Y350696D01*
X694920Y345616D01*
X705080D01*
X710160Y350696D01*
Y360856D01*
X705080Y365936D01*
D02*
G37*
G36*
X105080D02*
X94920D01*
X89840Y360856D01*
Y350696D01*
X94920Y345616D01*
X105080D01*
X110160Y350696D01*
Y360856D01*
X105080Y365936D01*
D02*
G37*
G36*
X589604Y341430D02*
X589369D01*
Y331270D01*
X599529D01*
Y331505D01*
X598750Y334412D01*
X597245Y337018D01*
X595117Y339146D01*
X592511Y340651D01*
X589604Y341430D01*
D02*
G37*
G36*
X586829D02*
X586594D01*
X583687Y340651D01*
X581081Y339146D01*
X578953Y337018D01*
X577448Y334412D01*
X576669Y331505D01*
Y331270D01*
X586829D01*
Y341430D01*
D02*
G37*
G36*
X599529Y328730D02*
X589369D01*
Y318570D01*
X589604D01*
X592511Y319349D01*
X595117Y320854D01*
X597245Y322982D01*
X598750Y325588D01*
X599529Y328495D01*
Y328730D01*
D02*
G37*
G36*
X586829D02*
X576669D01*
Y328495D01*
X577448Y325588D01*
X578953Y322982D01*
X581081Y320854D01*
X583687Y319349D01*
X586594Y318570D01*
X586829D01*
Y328730D01*
D02*
G37*
G36*
X513404Y341430D02*
X510394D01*
X507487Y340651D01*
X504881Y339146D01*
X502753Y337018D01*
X501248Y334412D01*
X500469Y331505D01*
Y328495D01*
X501248Y325588D01*
X502753Y322982D01*
X504881Y320854D01*
X507487Y319349D01*
X510394Y318570D01*
X513404D01*
X516311Y319349D01*
X518917Y320854D01*
X521045Y322982D01*
X522550Y325588D01*
X523329Y328495D01*
Y331505D01*
X522550Y334412D01*
X521045Y337018D01*
X518917Y339146D01*
X516311Y340651D01*
X513404Y341430D01*
D02*
G37*
G36*
X289604D02*
X286594D01*
X283687Y340651D01*
X281081Y339146D01*
X278953Y337018D01*
X277448Y334412D01*
X276669Y331505D01*
Y328495D01*
X277448Y325588D01*
X278953Y322982D01*
X281081Y320854D01*
X283687Y319349D01*
X286594Y318570D01*
X289604D01*
X292511Y319349D01*
X295117Y320854D01*
X297246Y322982D01*
X298750Y325588D01*
X299529Y328495D01*
Y331505D01*
X298750Y334412D01*
X297246Y337018D01*
X295117Y339146D01*
X292511Y340651D01*
X289604Y341430D01*
D02*
G37*
G36*
X213404D02*
X210394D01*
X207487Y340651D01*
X204881Y339146D01*
X202753Y337018D01*
X201248Y334412D01*
X200469Y331505D01*
Y328495D01*
X201248Y325588D01*
X202753Y322982D01*
X204881Y320854D01*
X207487Y319349D01*
X210394Y318570D01*
X213404D01*
X216311Y319349D01*
X218917Y320854D01*
X221045Y322982D01*
X222550Y325588D01*
X223329Y328495D01*
Y331505D01*
X222550Y334412D01*
X221045Y337018D01*
X218917Y339146D01*
X216311Y340651D01*
X213404Y341430D01*
D02*
G37*
G36*
X474020Y331521D02*
Y315090D01*
X482998D01*
Y321440D01*
X482649Y324092D01*
X481625Y326564D01*
X479996Y328686D01*
X477874Y330315D01*
X475402Y331339D01*
X474020Y331521D01*
D02*
G37*
G36*
X471480Y331521D02*
X470098Y331339D01*
X467626Y330315D01*
X465504Y328686D01*
X463875Y326564D01*
X462851Y324092D01*
X462502Y321440D01*
Y315090D01*
X471480D01*
Y331521D01*
D02*
G37*
G36*
Y312550D02*
X462502D01*
Y306200D01*
X462851Y303548D01*
X463875Y301076D01*
X465504Y298954D01*
X467626Y297325D01*
X470098Y296301D01*
X471480Y296119D01*
Y312550D01*
D02*
G37*
G36*
X482998D02*
X474020D01*
Y296119D01*
X475402Y296301D01*
X477874Y297325D01*
X479996Y298954D01*
X481625Y301076D01*
X482649Y303548D01*
X482998Y306200D01*
Y312550D01*
D02*
G37*
G36*
X213406Y301430D02*
X213171D01*
Y291270D01*
X223331D01*
Y291505D01*
X222552Y294412D01*
X221047Y297018D01*
X218919Y299146D01*
X216313Y300651D01*
X213406Y301430D01*
D02*
G37*
G36*
X210631D02*
X210396D01*
X207489Y300651D01*
X204883Y299146D01*
X202754Y297018D01*
X201250Y294412D01*
X200471Y291505D01*
Y291270D01*
X210631D01*
Y301430D01*
D02*
G37*
G36*
X223331Y288730D02*
X213171D01*
Y278570D01*
X213406D01*
X216313Y279349D01*
X218919Y280854D01*
X221047Y282982D01*
X222552Y285588D01*
X223331Y288495D01*
Y288730D01*
D02*
G37*
G36*
X210631D02*
X200471D01*
Y288495D01*
X201250Y285588D01*
X202754Y282982D01*
X204883Y280854D01*
X207489Y279349D01*
X210396Y278570D01*
X210631D01*
Y288730D01*
D02*
G37*
G36*
X589606Y291430D02*
X586596D01*
X583689Y290651D01*
X581083Y289146D01*
X578955Y287018D01*
X577450Y284412D01*
X576671Y281505D01*
Y278495D01*
X577450Y275588D01*
X578955Y272982D01*
X581083Y270854D01*
X583689Y269349D01*
X586596Y268570D01*
X589606D01*
X592513Y269349D01*
X595119Y270854D01*
X597247Y272982D01*
X598752Y275588D01*
X599531Y278495D01*
Y281505D01*
X598752Y284412D01*
X597247Y287018D01*
X595119Y289146D01*
X592513Y290651D01*
X589606Y291430D01*
D02*
G37*
G36*
X513406D02*
X510396D01*
X507489Y290651D01*
X504883Y289146D01*
X502755Y287018D01*
X501250Y284412D01*
X500471Y281505D01*
Y278495D01*
X501250Y275588D01*
X502755Y272982D01*
X504883Y270854D01*
X507489Y269349D01*
X510396Y268570D01*
X513406D01*
X516313Y269349D01*
X518919Y270854D01*
X521047Y272982D01*
X522552Y275588D01*
X523331Y278495D01*
Y281505D01*
X522552Y284412D01*
X521047Y287018D01*
X518919Y289146D01*
X516313Y290651D01*
X513406Y291430D01*
D02*
G37*
G36*
X439688Y280165D02*
X436512D01*
X433443Y279343D01*
X430692Y277754D01*
X428446Y275508D01*
X426857Y272757D01*
X426035Y269688D01*
Y266512D01*
X426857Y263443D01*
X428446Y260692D01*
X430692Y258446D01*
X433443Y256857D01*
X436512Y256035D01*
X439688D01*
X442757Y256857D01*
X445508Y258446D01*
X447754Y260692D01*
X449343Y263443D01*
X450165Y266512D01*
Y269688D01*
X449343Y272757D01*
X447754Y275508D01*
X445508Y277754D01*
X442757Y279343D01*
X439688Y280165D01*
D02*
G37*
G36*
X373965D02*
X349835D01*
Y256035D01*
X373965D01*
Y280165D01*
D02*
G37*
G36*
X472750Y291048D02*
X470098Y290699D01*
X467626Y289675D01*
X465504Y288046D01*
X463875Y285924D01*
X462851Y283452D01*
X462502Y280800D01*
Y265560D01*
X462851Y262908D01*
X463875Y260436D01*
X465504Y258314D01*
X467626Y256685D01*
X470098Y255662D01*
X472750Y255312D01*
X475402Y255662D01*
X477874Y256685D01*
X479996Y258314D01*
X481625Y260436D01*
X482649Y262908D01*
X482998Y265560D01*
Y280800D01*
X482649Y283452D01*
X481625Y285924D01*
X479996Y288046D01*
X477874Y289675D01*
X475402Y290699D01*
X472750Y291048D01*
D02*
G37*
G36*
X501020Y238613D02*
Y231020D01*
X508613D01*
X508034Y233181D01*
X506864Y235209D01*
X505209Y236864D01*
X503181Y238034D01*
X501020Y238613D01*
D02*
G37*
G36*
X498480D02*
X496319Y238034D01*
X494291Y236864D01*
X492636Y235209D01*
X491466Y233181D01*
X490887Y231020D01*
X498480D01*
Y238613D01*
D02*
G37*
G36*
X439688Y254765D02*
X436512D01*
X433443Y253943D01*
X430692Y252354D01*
X428446Y250108D01*
X426857Y247357D01*
X426035Y244288D01*
Y241112D01*
X426857Y238043D01*
X428446Y235292D01*
X430692Y233046D01*
X433443Y231457D01*
X436512Y230635D01*
X439688D01*
X442757Y231457D01*
X445508Y233046D01*
X447754Y235292D01*
X449343Y238043D01*
X450165Y241112D01*
Y244288D01*
X449343Y247357D01*
X447754Y250108D01*
X445508Y252354D01*
X442757Y253943D01*
X439688Y254765D01*
D02*
G37*
G36*
X363488D02*
X360312D01*
X357243Y253943D01*
X354492Y252354D01*
X352246Y250108D01*
X350657Y247357D01*
X349835Y244288D01*
Y241112D01*
X350657Y238043D01*
X352246Y235292D01*
X354492Y233046D01*
X357243Y231457D01*
X360312Y230635D01*
X363488D01*
X366557Y231457D01*
X369308Y233046D01*
X371554Y235292D01*
X373143Y238043D01*
X373965Y241112D01*
Y244288D01*
X373143Y247357D01*
X371554Y250108D01*
X369308Y252354D01*
X366557Y253943D01*
X363488Y254765D01*
D02*
G37*
G36*
X508613Y228480D02*
X501020D01*
Y220887D01*
X503181Y221466D01*
X505209Y222636D01*
X506864Y224291D01*
X508034Y226319D01*
X508613Y228480D01*
D02*
G37*
G36*
X498480D02*
X490887D01*
X491466Y226319D01*
X492636Y224291D01*
X494291Y222636D01*
X496319Y221466D01*
X498480Y220887D01*
Y228480D01*
D02*
G37*
G36*
X439688Y229365D02*
X436512D01*
X433443Y228543D01*
X430692Y226954D01*
X428446Y224708D01*
X426857Y221957D01*
X426035Y218888D01*
Y215712D01*
X426857Y212643D01*
X428446Y209892D01*
X430692Y207646D01*
X433443Y206057D01*
X436512Y205235D01*
X439688D01*
X442757Y206057D01*
X445508Y207646D01*
X447754Y209892D01*
X449343Y212643D01*
X450165Y215712D01*
Y218888D01*
X449343Y221957D01*
X447754Y224708D01*
X445508Y226954D01*
X442757Y228543D01*
X439688Y229365D01*
D02*
G37*
G36*
X363488D02*
X360312D01*
X357243Y228543D01*
X354492Y226954D01*
X352246Y224708D01*
X350657Y221957D01*
X349835Y218888D01*
Y215712D01*
X350657Y212643D01*
X352246Y209892D01*
X354492Y207646D01*
X357243Y206057D01*
X360312Y205235D01*
X363488D01*
X366557Y206057D01*
X369308Y207646D01*
X371554Y209892D01*
X373143Y212643D01*
X373965Y215712D01*
Y218888D01*
X373143Y221957D01*
X371554Y224708D01*
X369308Y226954D01*
X366557Y228543D01*
X363488Y229365D01*
D02*
G37*
G36*
Y203965D02*
X363170D01*
Y193170D01*
X373965D01*
Y193488D01*
X373143Y196557D01*
X371554Y199308D01*
X369308Y201554D01*
X366557Y203143D01*
X363488Y203965D01*
D02*
G37*
G36*
X360630D02*
X360312D01*
X357243Y203143D01*
X354492Y201554D01*
X352246Y199308D01*
X350657Y196557D01*
X349835Y193488D01*
Y193170D01*
X360630D01*
Y203965D01*
D02*
G37*
G36*
X151338Y200160D02*
X151270D01*
Y191270D01*
X160160D01*
Y191338D01*
X159468Y193922D01*
X158130Y196238D01*
X156238Y198130D01*
X153922Y199468D01*
X151338Y200160D01*
D02*
G37*
G36*
X148730D02*
X148662D01*
X146078Y199468D01*
X143762Y198130D01*
X141870Y196238D01*
X140532Y193922D01*
X139840Y191338D01*
Y191270D01*
X148730D01*
Y200160D01*
D02*
G37*
G36*
X305770Y188863D02*
Y181270D01*
X313363D01*
X312784Y183431D01*
X311614Y185459D01*
X309959Y187114D01*
X307931Y188284D01*
X305770Y188863D01*
D02*
G37*
G36*
X303230D02*
X301069Y188284D01*
X299041Y187114D01*
X297386Y185459D01*
X296216Y183431D01*
X295637Y181270D01*
X303230D01*
Y188863D01*
D02*
G37*
G36*
X160160Y188730D02*
X151270D01*
Y179840D01*
X151338D01*
X153922Y180532D01*
X156238Y181870D01*
X158130Y183762D01*
X159468Y186078D01*
X160160Y188662D01*
Y188730D01*
D02*
G37*
G36*
X148730D02*
X139840D01*
Y188662D01*
X140532Y186078D01*
X141870Y183762D01*
X143762Y181870D01*
X146078Y180532D01*
X148662Y179840D01*
X148730D01*
Y188730D01*
D02*
G37*
G36*
X134760Y200160D02*
X114440D01*
Y179840D01*
X134760D01*
Y200160D01*
D02*
G37*
G36*
X439688Y203965D02*
X436512D01*
X433443Y203143D01*
X430692Y201554D01*
X428446Y199308D01*
X426857Y196557D01*
X426035Y193488D01*
Y190312D01*
X426857Y187243D01*
X428446Y184492D01*
X430692Y182246D01*
X433443Y180657D01*
X436512Y179835D01*
X439688D01*
X442757Y180657D01*
X445508Y182246D01*
X447754Y184492D01*
X449343Y187243D01*
X450165Y190312D01*
Y193488D01*
X449343Y196557D01*
X447754Y199308D01*
X445508Y201554D01*
X442757Y203143D01*
X439688Y203965D01*
D02*
G37*
G36*
X373965Y190630D02*
X363170D01*
Y179835D01*
X363488D01*
X366557Y180657D01*
X369308Y182246D01*
X371554Y184492D01*
X373143Y187243D01*
X373965Y190312D01*
Y190630D01*
D02*
G37*
G36*
X360630D02*
X349835D01*
Y190312D01*
X350657Y187243D01*
X352246Y184492D01*
X354492Y182246D01*
X357243Y180657D01*
X360312Y179835D01*
X360630D01*
Y190630D01*
D02*
G37*
G36*
X313363Y178730D02*
X305770D01*
Y171137D01*
X307931Y171716D01*
X309959Y172886D01*
X311614Y174541D01*
X312784Y176569D01*
X313363Y178730D01*
D02*
G37*
G36*
X303230D02*
X295637D01*
X296216Y176569D01*
X297386Y174541D01*
X299041Y172886D01*
X301069Y171716D01*
X303230Y171137D01*
Y178730D01*
D02*
G37*
G36*
X379045Y155300D02*
X375870D01*
Y141270D01*
X386090D01*
Y148255D01*
X385850Y150078D01*
X385146Y151778D01*
X384027Y153237D01*
X382568Y154356D01*
X380868Y155060D01*
X379045Y155300D01*
D02*
G37*
G36*
X373330D02*
X370155D01*
X368331Y155060D01*
X366632Y154356D01*
X365173Y153237D01*
X364054Y151778D01*
X363350Y150078D01*
X363110Y148255D01*
Y141270D01*
X373330D01*
Y155300D01*
D02*
G37*
G36*
X429845D02*
X420955D01*
X419132Y155060D01*
X417432Y154356D01*
X415973Y153237D01*
X414854Y151778D01*
X414150Y150078D01*
X413910Y148255D01*
Y131745D01*
X414150Y129922D01*
X414854Y128222D01*
X415973Y126763D01*
X417432Y125644D01*
X419132Y124940D01*
X420955Y124700D01*
X429845D01*
X431668Y124940D01*
X433368Y125644D01*
X434827Y126763D01*
X435946Y128222D01*
X436650Y129922D01*
X436890Y131745D01*
Y148255D01*
X436650Y150078D01*
X435946Y151778D01*
X434827Y153237D01*
X433368Y154356D01*
X431668Y155060D01*
X429845Y155300D01*
D02*
G37*
G36*
X404445D02*
X395555D01*
X393731Y155060D01*
X392032Y154356D01*
X390573Y153237D01*
X389454Y151778D01*
X388750Y150078D01*
X388510Y148255D01*
Y131745D01*
X388750Y129922D01*
X389454Y128222D01*
X390573Y126763D01*
X392032Y125644D01*
X393731Y124940D01*
X395555Y124700D01*
X404445D01*
X406268Y124940D01*
X407968Y125644D01*
X409427Y126763D01*
X410546Y128222D01*
X411250Y129922D01*
X411490Y131745D01*
Y148255D01*
X411250Y150078D01*
X410546Y151778D01*
X409427Y153237D01*
X407968Y154356D01*
X406268Y155060D01*
X404445Y155300D01*
D02*
G37*
G36*
X386090Y138730D02*
X375870D01*
Y124700D01*
X379045D01*
X380868Y124940D01*
X382568Y125644D01*
X384027Y126763D01*
X385146Y128222D01*
X385850Y129922D01*
X386090Y131745D01*
Y138730D01*
D02*
G37*
G36*
X373330D02*
X363110D01*
Y131745D01*
X363350Y129922D01*
X364054Y128222D01*
X365173Y126763D01*
X366632Y125644D01*
X368331Y124940D01*
X370155Y124700D01*
X373330D01*
Y138730D01*
D02*
G37*
G36*
X172583Y113540D02*
X172070D01*
Y101270D01*
X184340D01*
Y101783D01*
X183417Y105226D01*
X181635Y108314D01*
X179114Y110835D01*
X176026Y112617D01*
X172583Y113540D01*
D02*
G37*
G36*
X169530D02*
X169017D01*
X165574Y112617D01*
X162486Y110835D01*
X159965Y108314D01*
X158183Y105226D01*
X157260Y101783D01*
Y101270D01*
X169530D01*
Y113540D01*
D02*
G37*
G36*
X672583D02*
X669017D01*
X665574Y112617D01*
X662486Y110835D01*
X659965Y108314D01*
X658183Y105226D01*
X657260Y101783D01*
Y98217D01*
X658183Y94774D01*
X659965Y91686D01*
X662486Y89165D01*
X665574Y87383D01*
X669017Y86460D01*
X672583D01*
X676026Y87383D01*
X679114Y89165D01*
X681635Y91686D01*
X683417Y94774D01*
X684340Y98217D01*
Y101783D01*
X683417Y105226D01*
X681635Y108314D01*
X679114Y110835D01*
X676026Y112617D01*
X672583Y113540D01*
D02*
G37*
G36*
X289606Y301430D02*
X286596D01*
X283689Y300651D01*
X281083Y299146D01*
X278955Y297018D01*
X277450Y294412D01*
X276671Y291505D01*
Y288495D01*
X277450Y285588D01*
X278955Y282982D01*
X280496Y281441D01*
Y231899D01*
X280755Y229931D01*
X280977Y229394D01*
X281515Y228097D01*
X282723Y226522D01*
X344622Y164622D01*
X346198Y163414D01*
X347272Y162969D01*
X348032Y162654D01*
X350000Y162395D01*
X546850D01*
X606672Y102573D01*
X606460Y101783D01*
Y98217D01*
X607383Y94774D01*
X609165Y91686D01*
X611686Y89165D01*
X614774Y87383D01*
X618217Y86460D01*
X621783D01*
X625226Y87383D01*
X628314Y89165D01*
X630835Y91686D01*
X632617Y94774D01*
X633540Y98217D01*
Y101783D01*
X632617Y105226D01*
X630835Y108314D01*
X628314Y110835D01*
X625226Y112617D01*
X621783Y113540D01*
X618217D01*
X617427Y113328D01*
X555378Y175378D01*
X553802Y176586D01*
X552506Y177123D01*
X551968Y177346D01*
X550000Y177605D01*
X353150D01*
X295706Y235049D01*
Y281441D01*
X297247Y282982D01*
X298752Y285588D01*
X299531Y288495D01*
Y291505D01*
X298752Y294412D01*
X297247Y297018D01*
X295119Y299146D01*
X292513Y300651D01*
X289606Y301430D01*
D02*
G37*
G36*
X184340Y98730D02*
X172070D01*
Y86460D01*
X172583D01*
X176026Y87383D01*
X179114Y89165D01*
X181635Y91686D01*
X183417Y94774D01*
X184340Y98217D01*
Y98730D01*
D02*
G37*
G36*
X169530D02*
X157260D01*
Y98217D01*
X158183Y94774D01*
X159965Y91686D01*
X162486Y89165D01*
X165574Y87383D01*
X169017Y86460D01*
X169530D01*
Y98730D01*
D02*
G37*
G36*
X121783Y113540D02*
X118217D01*
X114774Y112617D01*
X111686Y110835D01*
X109165Y108314D01*
X107383Y105226D01*
X106460Y101783D01*
Y98217D01*
X107383Y94774D01*
X109165Y91686D01*
X111686Y89165D01*
X114774Y87383D01*
X118217Y86460D01*
X121783D01*
X125226Y87383D01*
X128314Y89165D01*
X130835Y91686D01*
X132617Y94774D01*
X133540Y98217D01*
Y101783D01*
X132617Y105226D01*
X130835Y108314D01*
X128314Y110835D01*
X125226Y112617D01*
X121783Y113540D01*
D02*
G37*
G36*
X473660Y93010D02*
X427940D01*
Y47290D01*
X473660D01*
Y93010D01*
D02*
G37*
G36*
X372060D02*
X326340D01*
Y47290D01*
X372060D01*
Y93010D01*
D02*
G37*
G36*
X749460Y69000D02*
X745808D01*
X742226Y68288D01*
X738852Y66890D01*
X735816Y64861D01*
X733233Y62279D01*
X731204Y59242D01*
X729807Y55868D01*
X729094Y52286D01*
Y48634D01*
X729807Y45052D01*
X731204Y41678D01*
X733233Y38642D01*
X735816Y36059D01*
X738852Y34030D01*
X742226Y32633D01*
X745808Y31920D01*
X749460D01*
X753042Y32633D01*
X756416Y34030D01*
X759453Y36059D01*
X762035Y38642D01*
X764064Y41678D01*
X765462Y45052D01*
X766174Y48634D01*
Y52286D01*
X765462Y55868D01*
X764064Y59242D01*
X762035Y62279D01*
X759453Y64861D01*
X756416Y66890D01*
X753042Y68288D01*
X749460Y69000D01*
D02*
G37*
G36*
X51826Y68540D02*
X48174D01*
X44592Y67828D01*
X41218Y66430D01*
X38181Y64401D01*
X35599Y61819D01*
X33570Y58782D01*
X32173Y55408D01*
X31460Y51826D01*
Y48174D01*
X32173Y44592D01*
X33570Y41218D01*
X35599Y38181D01*
X38181Y35599D01*
X41218Y33570D01*
X44592Y32173D01*
X48174Y31460D01*
X51826D01*
X55408Y32173D01*
X58782Y33570D01*
X61819Y35599D01*
X64401Y38181D01*
X66430Y41218D01*
X67828Y44592D01*
X68540Y48174D01*
Y51826D01*
X67828Y55408D01*
X66430Y58782D01*
X64401Y61819D01*
X61819Y64401D01*
X58782Y66430D01*
X55408Y67828D01*
X51826Y68540D01*
D02*
G37*
%LPD*%
G54D10*
X429972Y268100D02*
G03*
X446228Y268100I8128J0D01*
G01*
D02*
G03*
X429972Y268100I-8128J0D01*
G01*
X446224Y192150D02*
G03*
X446228Y191900I-8124J-250D01*
G01*
D02*
G03*
X446224Y192150I-8128J0D01*
G01*
X370028Y242700D02*
G03*
X370028Y242700I-8128J0D01*
G01*
Y217300D02*
G03*
X370028Y217300I-8128J0D01*
G01*
Y191900D02*
G03*
X370028Y191900I-8128J0D01*
G01*
X446228Y217300D02*
G03*
X446228Y217300I-8128J0D01*
G01*
Y242700D02*
G03*
X446228Y242700I-8128J0D01*
G01*
X800000Y450000D02*
G03*
X750000Y500000I-50000J0D01*
G01*
Y0D02*
G03*
X800000Y50000I0J50000D01*
G01*
X50000Y500000D02*
G03*
X0Y450000I0J-50000D01*
G01*
Y50000D02*
G03*
X50000Y0I50000J0D01*
G01*
X750000D01*
X800000Y50000D02*
Y450000D01*
X50000Y500000D02*
X750000D01*
X0Y50000D02*
Y450000D01*
G54D37*
X350000Y170000D02*
X550000D01*
X620000Y100000D01*
X288101Y231899D02*
X350000Y170000D01*
X288101Y231899D02*
Y290000D01*
X290000Y288101D01*
G54D39*
X361900Y268100D02*
D03*
G54D40*
X472750Y313820D02*
D03*
Y273180D02*
D03*
G54D41*
Y318900D02*
D03*
Y268100D02*
D03*
X747634Y50460D02*
D03*
X50000Y450000D02*
D03*
X750000D02*
D03*
X150000Y190000D02*
D03*
X50000Y50000D02*
D03*
G54D42*
X100000Y355776D02*
D03*
Y384000D02*
D03*
X700000D02*
D03*
Y355776D02*
D03*
G54D43*
X211899Y330000D02*
D03*
X288099D02*
D03*
X511901Y280000D02*
D03*
X588101D02*
D03*
X588099Y330000D02*
D03*
X511899D02*
D03*
X211901Y290000D02*
D03*
X288101D02*
D03*
G54D44*
X438100Y191900D02*
D03*
Y217300D02*
D03*
Y242700D02*
D03*
Y268100D02*
D03*
X361900Y191900D02*
D03*
Y217300D02*
D03*
Y242700D02*
D03*
G54D45*
Y268100D02*
D03*
G54D46*
X374600Y140000D02*
D03*
X400000D02*
D03*
X425400D02*
D03*
G54D47*
X349200Y70150D02*
D03*
X450800D02*
D03*
G54D48*
X124600Y190000D02*
D03*
G54D49*
X170800Y100000D02*
D03*
X120000D02*
D03*
X670800D02*
D03*
X620000D02*
D03*
G54D50*
X450000Y374600D02*
D03*
Y400000D02*
D03*
X350000Y374600D02*
D03*
Y400000D02*
D03*
G54D51*
X450000Y425400D02*
D03*
X350000D02*
D03*
G54D52*
X550000Y426000D02*
D03*
X250000D02*
D03*
G54D53*
X550000Y374000D02*
D03*
Y400000D02*
D03*
X250000Y374000D02*
D03*
Y400000D02*
D03*
G54D54*
X304500Y180000D02*
D03*
X499750Y229750D02*
D03*
M02*
