G04*
G04 #@! TF.GenerationSoftware,Altium Limited,CircuitMaker,2.2.1 (2.2.1.6)*
G04*
G04 Layer_Physical_Order=1*
G04 Layer_Color=25308*
%FSLAX44Y44*%
%MOMM*%
G71*
G04*
G04 #@! TF.SameCoordinates,B7FF0B77-2EFF-419A-B724-F2A86093BB65*
G04*
G04*
G04 #@! TF.FilePolarity,Positive*
G04*
G01*
G75*
%ADD10C,0.2540*%
%ADD17R,1.5500X1.2500*%
%ADD36R,1.3000X0.9000*%
%ADD37C,1.0000*%
%ADD38C,0.5000*%
%ADD39R,1.8796X1.8796*%
%ADD40O,1.5240X3.0480*%
%ADD41C,1.5240*%
%ADD42P,1.6496X8X292.5*%
%ADD43C,1.7780*%
%ADD44C,1.9050*%
%ADD45R,1.9050X1.9050*%
G04:AMPARAMS|DCode=46|XSize=1.778mm|YSize=2.54mm|CornerRadius=0.4445mm|HoleSize=0mm|Usage=FLASHONLY|Rotation=180.000|XOffset=0mm|YOffset=0mm|HoleType=Round|Shape=RoundedRectangle|*
%AMROUNDEDRECTD46*
21,1,1.7780,1.6510,0,0,180.0*
21,1,0.8890,2.5400,0,0,180.0*
1,1,0.8890,-0.4445,0.8255*
1,1,0.8890,0.4445,0.8255*
1,1,0.8890,0.4445,-0.8255*
1,1,0.8890,-0.4445,-0.8255*
%
%ADD46ROUNDEDRECTD46*%
%ADD47R,4.0640X4.0640*%
%ADD48R,1.5240X1.5240*%
%ADD49C,2.2000*%
%ADD50C,1.8000*%
%ADD51R,1.8000X1.8000*%
%ADD52R,1.4000X1.4000*%
%ADD53C,1.4000*%
%ADD54C,1.2700*%
G36*
X756025Y495767D02*
X761947Y494589D01*
X767665Y492648D01*
X773081Y489977D01*
X778102Y486623D01*
X782641Y482641D01*
X786623Y478102D01*
X789977Y473081D01*
X792648Y467665D01*
X794589Y461948D01*
X795767Y456025D01*
X796150Y450176D01*
X796115Y450000D01*
Y50000D01*
X796150Y49824D01*
X795767Y43975D01*
X794589Y38052D01*
X792648Y32335D01*
X789977Y26919D01*
X786623Y21899D01*
X782641Y17359D01*
X778102Y13377D01*
X773081Y10023D01*
X767665Y7352D01*
X761947Y5411D01*
X756025Y4233D01*
X750176Y3850D01*
X750000Y3885D01*
X50000D01*
X49824Y3850D01*
X43975Y4233D01*
X38052Y5411D01*
X32335Y7352D01*
X26919Y10023D01*
X21899Y13377D01*
X17359Y17359D01*
X13377Y21899D01*
X10023Y26919D01*
X7352Y32335D01*
X5411Y38052D01*
X4233Y43975D01*
X3850Y49824D01*
X3885Y50000D01*
Y450000D01*
X3850Y450176D01*
X4233Y456025D01*
X5411Y461948D01*
X7352Y467665D01*
X10023Y473081D01*
X13377Y478102D01*
X17359Y482641D01*
X21899Y486623D01*
X26919Y489977D01*
X32335Y492648D01*
X38052Y494589D01*
X43975Y495767D01*
X49824Y496150D01*
X50000Y496115D01*
X750000D01*
X750176Y496150D01*
X756025Y495767D01*
D02*
G37*
%LPC*%
G36*
X751826Y468540D02*
X748174D01*
X744592Y467827D01*
X741218Y466430D01*
X738181Y464401D01*
X735599Y461819D01*
X733570Y458782D01*
X732172Y455408D01*
X731460Y451826D01*
Y448174D01*
X732172Y444592D01*
X733570Y441218D01*
X735599Y438181D01*
X738181Y435599D01*
X741218Y433570D01*
X744592Y432173D01*
X748174Y431460D01*
X751826D01*
X755408Y432173D01*
X758782Y433570D01*
X761819Y435599D01*
X764401Y438181D01*
X766430Y441218D01*
X767828Y444592D01*
X768540Y448174D01*
Y451826D01*
X767828Y455408D01*
X766430Y458782D01*
X764401Y461819D01*
X761819Y464401D01*
X758782Y466430D01*
X755408Y467827D01*
X751826Y468540D01*
D02*
G37*
G36*
X51826D02*
X48174D01*
X44592Y467827D01*
X41218Y466430D01*
X38181Y464401D01*
X35599Y461819D01*
X33570Y458782D01*
X32173Y455408D01*
X31460Y451826D01*
Y448174D01*
X32173Y444592D01*
X33570Y441218D01*
X35599Y438181D01*
X38181Y435599D01*
X41218Y433570D01*
X44592Y432173D01*
X48174Y431460D01*
X51826D01*
X55408Y432173D01*
X58782Y433570D01*
X61819Y435599D01*
X64401Y438181D01*
X66430Y441218D01*
X67828Y444592D01*
X68540Y448174D01*
Y451826D01*
X67828Y455408D01*
X66430Y458782D01*
X64401Y461819D01*
X61819Y464401D01*
X58782Y466430D01*
X55408Y467827D01*
X51826Y468540D01*
D02*
G37*
G36*
X559540Y435540D02*
X551270D01*
Y427270D01*
X559540D01*
Y435540D01*
D02*
G37*
G36*
X548730D02*
X540460D01*
Y427270D01*
X548730D01*
Y435540D01*
D02*
G37*
G36*
X259540D02*
X251270D01*
Y427270D01*
X259540D01*
Y435540D01*
D02*
G37*
G36*
X248730D02*
X240460D01*
Y427270D01*
X248730D01*
Y435540D01*
D02*
G37*
G36*
X559540Y424730D02*
X551270D01*
Y416460D01*
X559540D01*
Y424730D01*
D02*
G37*
G36*
X548730D02*
X540460D01*
Y416460D01*
X548730D01*
Y424730D01*
D02*
G37*
G36*
X259540D02*
X251270D01*
Y416460D01*
X259540D01*
Y424730D01*
D02*
G37*
G36*
X248730D02*
X240460D01*
Y416460D01*
X248730D01*
Y424730D01*
D02*
G37*
G36*
X325400Y457605D02*
X200000D01*
X198032Y457346D01*
X196197Y456586D01*
X194622Y455378D01*
X158623Y419378D01*
X158622Y419378D01*
X130850Y391605D01*
X107635D01*
X105080Y394160D01*
X94920D01*
X92365Y391605D01*
X84000D01*
X82032Y391346D01*
X80197Y390586D01*
X78622Y389378D01*
X56872Y367628D01*
X55664Y366053D01*
X54904Y364218D01*
X54645Y362250D01*
Y347750D01*
X54904Y345782D01*
X55664Y343947D01*
X56872Y342372D01*
X116995Y282250D01*
Y257500D01*
Y200160D01*
X114440D01*
Y179840D01*
X116995D01*
Y113212D01*
X114774Y112617D01*
X111686Y110835D01*
X109165Y108314D01*
X107383Y105226D01*
X106460Y101783D01*
Y98217D01*
X107383Y94774D01*
X109165Y91686D01*
X111686Y89165D01*
X114774Y87383D01*
X118217Y86460D01*
X121783D01*
X125226Y87383D01*
X128314Y89165D01*
X130835Y91686D01*
X132617Y94774D01*
X133540Y98217D01*
Y101783D01*
X132617Y105226D01*
X132205Y105940D01*
Y179840D01*
X134760D01*
Y200160D01*
X132205D01*
Y249895D01*
X147850D01*
X293372Y104372D01*
X294947Y103164D01*
X296782Y102404D01*
X298750Y102145D01*
X419750D01*
X421718Y102404D01*
X423553Y103164D01*
X425128Y104372D01*
X430778Y110022D01*
X431986Y111597D01*
X432301Y112357D01*
X432746Y113432D01*
X433005Y115400D01*
Y125493D01*
X433368Y125644D01*
X434827Y126763D01*
X435946Y128222D01*
X436650Y129922D01*
X436890Y131745D01*
Y132395D01*
X563750D01*
X565718Y132654D01*
X567552Y133414D01*
X569128Y134622D01*
X741378Y306872D01*
X742586Y308447D01*
X743346Y310282D01*
X743605Y312250D01*
Y369000D01*
X743346Y370968D01*
X742901Y372043D01*
X742586Y372803D01*
X741378Y374378D01*
X726378Y389378D01*
X724802Y390586D01*
X722968Y391346D01*
X721000Y391605D01*
X707635D01*
X705080Y394160D01*
X694920D01*
X691865Y391105D01*
X668000D01*
X666032Y390846D01*
X664197Y390086D01*
X662622Y388878D01*
X642122Y368378D01*
X640914Y366802D01*
X640154Y364968D01*
X639895Y363000D01*
Y342549D01*
X588776Y291430D01*
X586596D01*
X583689Y290651D01*
X581083Y289146D01*
X578955Y287018D01*
X577450Y284412D01*
X576671Y281505D01*
Y279325D01*
X557951Y260605D01*
X500150D01*
X487278Y273478D01*
X485703Y274686D01*
X483868Y275446D01*
X482998Y275561D01*
Y280800D01*
X482649Y283452D01*
X481625Y285924D01*
X479996Y288046D01*
X477874Y289675D01*
X475402Y290699D01*
X472750Y291048D01*
X470098Y290699D01*
X467626Y289675D01*
X465504Y288046D01*
X463875Y285924D01*
X462851Y283452D01*
X462502Y280800D01*
Y275705D01*
X447557D01*
X445508Y277754D01*
X442757Y279343D01*
X439688Y280165D01*
X436512D01*
X433443Y279343D01*
X430692Y277754D01*
X428446Y275508D01*
X426857Y272757D01*
X426035Y269688D01*
Y266512D01*
X426857Y263443D01*
X428446Y260692D01*
X430692Y258446D01*
X433443Y256857D01*
X436512Y256035D01*
X439688D01*
X442757Y256857D01*
X445508Y258446D01*
X447557Y260495D01*
X463851D01*
X463875Y260436D01*
X465504Y258314D01*
X467626Y256685D01*
X470098Y255662D01*
X472750Y255312D01*
X475402Y255662D01*
X477874Y256685D01*
X479996Y258314D01*
X480873Y258371D01*
X491622Y247622D01*
X493198Y246414D01*
X495032Y245654D01*
X497000Y245395D01*
X561101D01*
X563069Y245654D01*
X564903Y246414D01*
X566478Y247622D01*
X587426Y268570D01*
X589606D01*
X592513Y269349D01*
X595119Y270854D01*
X597247Y272982D01*
X598752Y275588D01*
X599531Y278495D01*
Y280675D01*
X652878Y334022D01*
X654086Y335597D01*
X654846Y337431D01*
X655105Y339399D01*
Y359850D01*
X671150Y375895D01*
X692865D01*
X694920Y373840D01*
X705080D01*
X707635Y376395D01*
X717850D01*
X728395Y365850D01*
Y315400D01*
X560600Y147605D01*
X436890D01*
Y148255D01*
X436650Y150078D01*
X435946Y151778D01*
X434827Y153237D01*
X433368Y154356D01*
X431668Y155060D01*
X429845Y155300D01*
X420955D01*
X419132Y155060D01*
X417432Y154356D01*
X415973Y153237D01*
X414854Y151778D01*
X414150Y150078D01*
X413910Y148255D01*
Y131745D01*
X414150Y129922D01*
X414854Y128222D01*
X415973Y126763D01*
X417432Y125644D01*
X417795Y125493D01*
Y118550D01*
X416600Y117355D01*
X301900D01*
X156378Y262878D01*
X154803Y264086D01*
X152968Y264846D01*
X151000Y265105D01*
X132205D01*
Y285400D01*
X131946Y287368D01*
X131186Y289202D01*
X129978Y290778D01*
X69855Y350900D01*
Y359100D01*
X87150Y376395D01*
X92365D01*
X94920Y373840D01*
X105080D01*
X107635Y376395D01*
X134000D01*
X135968Y376654D01*
X137802Y377414D01*
X139378Y378622D01*
X164000Y403245D01*
X204294Y362951D01*
Y338559D01*
X202753Y337018D01*
X201248Y334412D01*
X200469Y331505D01*
Y328495D01*
X201248Y325588D01*
X202753Y322982D01*
X204881Y320854D01*
X207487Y319349D01*
X210394Y318570D01*
X213404D01*
X216311Y319349D01*
X218917Y320854D01*
X221045Y322982D01*
X222550Y325588D01*
X223329Y328495D01*
Y331505D01*
X222550Y334412D01*
X221045Y337018D01*
X219504Y338559D01*
Y366101D01*
X219245Y368069D01*
X218485Y369903D01*
X217277Y371478D01*
X174755Y414000D01*
X203150Y442395D01*
X322250D01*
X338460Y426185D01*
Y413860D01*
X361540D01*
Y417795D01*
X438460D01*
Y413860D01*
X461540D01*
Y436940D01*
X438460D01*
Y433005D01*
X361540D01*
Y436940D01*
X349215D01*
X330778Y455378D01*
X329202Y456586D01*
X327368Y457346D01*
X325400Y457605D01*
D02*
G37*
G36*
X351519Y411540D02*
X348481D01*
X345546Y410754D01*
X342914Y409234D01*
X341285Y407605D01*
X255886D01*
X255858Y407634D01*
X253682Y408890D01*
X251256Y409540D01*
X248744D01*
X246318Y408890D01*
X244142Y407634D01*
X242366Y405858D01*
X241110Y403682D01*
X240460Y401256D01*
Y398744D01*
X241110Y396318D01*
X242366Y394142D01*
X244142Y392366D01*
X246318Y391110D01*
X248744Y390460D01*
X251256D01*
X253682Y391110D01*
X255858Y392366D01*
X255886Y392395D01*
X341285D01*
X342914Y390766D01*
X345546Y389246D01*
X348481Y388460D01*
X351519D01*
X354454Y389246D01*
X357086Y390766D01*
X358715Y392395D01*
X364350D01*
X372395Y384350D01*
Y355540D01*
X370960D01*
Y341460D01*
X377293D01*
X378032Y341154D01*
X380000Y340895D01*
X381968Y341154D01*
X382707Y341460D01*
X389040D01*
Y355540D01*
X387605D01*
Y387500D01*
X387346Y389468D01*
X386901Y390543D01*
X386586Y391302D01*
X385378Y392878D01*
X372878Y405378D01*
X371302Y406586D01*
X369468Y407346D01*
X367500Y407605D01*
X358715D01*
X357086Y409234D01*
X354454Y410754D01*
X351519Y411540D01*
D02*
G37*
G36*
X730000Y417605D02*
X610000D01*
X608032Y417346D01*
X606197Y416586D01*
X604622Y415378D01*
X570850Y381605D01*
X555886D01*
X555858Y381634D01*
X553682Y382890D01*
X551256Y383540D01*
X548744D01*
X546318Y382890D01*
X545132Y382205D01*
X458715D01*
X457086Y383834D01*
X454454Y385354D01*
X451519Y386140D01*
X448481D01*
X445546Y385354D01*
X442914Y383834D01*
X440766Y381686D01*
X439246Y379054D01*
X438875Y377668D01*
X437605Y377836D01*
Y386850D01*
X442218Y391462D01*
X442914Y390766D01*
X445546Y389246D01*
X448481Y388460D01*
X451519D01*
X454454Y389246D01*
X457086Y390766D01*
X458715Y392395D01*
X544114D01*
X544142Y392366D01*
X546318Y391110D01*
X548744Y390460D01*
X551256D01*
X553682Y391110D01*
X555858Y392366D01*
X557634Y394142D01*
X558890Y396318D01*
X559540Y398744D01*
Y401256D01*
X558890Y403682D01*
X557634Y405858D01*
X555858Y407634D01*
X553682Y408890D01*
X551256Y409540D01*
X548744D01*
X546318Y408890D01*
X544142Y407634D01*
X544114Y407605D01*
X458715D01*
X457086Y409234D01*
X454454Y410754D01*
X451519Y411540D01*
X448481D01*
X445546Y410754D01*
X442914Y409234D01*
X441285Y407605D01*
X440000D01*
X438032Y407346D01*
X436198Y406586D01*
X434622Y405378D01*
X424622Y395378D01*
X423414Y393802D01*
X422654Y391968D01*
X422395Y390000D01*
Y355540D01*
X420960D01*
Y341460D01*
X427293D01*
X428032Y341154D01*
X430000Y340895D01*
X431968Y341154D01*
X432707Y341460D01*
X439040D01*
Y355540D01*
X437605D01*
Y371365D01*
X438875Y371532D01*
X439246Y370146D01*
X440766Y367514D01*
X442914Y365366D01*
X445546Y363846D01*
X448481Y363060D01*
X451519D01*
X454454Y363846D01*
X457086Y365366D01*
X458715Y366995D01*
X530580D01*
X531066Y365822D01*
X506522Y341277D01*
X505313Y339702D01*
X505146Y339300D01*
X504881Y339146D01*
X502753Y337018D01*
X501248Y334412D01*
X500469Y331505D01*
Y328495D01*
X501248Y325588D01*
X502753Y322982D01*
X504294Y321441D01*
Y288558D01*
X502755Y287018D01*
X501250Y284412D01*
X500471Y281505D01*
Y278495D01*
X501250Y275588D01*
X502755Y272982D01*
X504883Y270854D01*
X507489Y269349D01*
X510396Y268570D01*
X513406D01*
X516313Y269349D01*
X518919Y270854D01*
X521047Y272982D01*
X522552Y275588D01*
X523331Y278495D01*
Y281505D01*
X522552Y284412D01*
X521047Y287018D01*
X519504Y288561D01*
Y321441D01*
X521045Y322982D01*
X522550Y325588D01*
X523329Y328495D01*
Y331505D01*
X522550Y334412D01*
X522044Y335289D01*
X551215Y364460D01*
X551256D01*
X553682Y365110D01*
X555858Y366366D01*
X555886Y366395D01*
X574000D01*
X575968Y366654D01*
X577803Y367414D01*
X579378Y368622D01*
X613150Y402395D01*
X726850D01*
X762395Y366850D01*
Y283150D01*
X665422Y186178D01*
X664214Y184603D01*
X663454Y182768D01*
X663195Y180800D01*
Y111244D01*
X662486Y110835D01*
X659965Y108314D01*
X658183Y105226D01*
X657260Y101783D01*
Y98217D01*
X658183Y94774D01*
X659965Y91686D01*
X662486Y89165D01*
X665574Y87383D01*
X669017Y86460D01*
X672583D01*
X676026Y87383D01*
X679114Y89165D01*
X681635Y91686D01*
X683417Y94774D01*
X684340Y98217D01*
Y101783D01*
X683417Y105226D01*
X681635Y108314D01*
X679114Y110835D01*
X678405Y111244D01*
Y177650D01*
X775378Y274622D01*
X776586Y276197D01*
X776901Y276957D01*
X777346Y278032D01*
X777605Y280000D01*
Y370000D01*
X777346Y371968D01*
X776901Y373043D01*
X776586Y373802D01*
X775378Y375378D01*
X735378Y415378D01*
X733802Y416586D01*
X731968Y417346D01*
X730000Y417605D01*
D02*
G37*
G36*
X351519Y386140D02*
X348481D01*
X345546Y385354D01*
X342914Y383834D01*
X340766Y381686D01*
X340719Y381605D01*
X255886D01*
X255858Y381634D01*
X253682Y382890D01*
X251256Y383540D01*
X248744D01*
X246318Y382890D01*
X244142Y381634D01*
X242366Y379858D01*
X241110Y377682D01*
X240460Y375256D01*
Y372744D01*
X241110Y370318D01*
X242366Y368142D01*
X244142Y366366D01*
X246318Y365110D01*
X248744Y364460D01*
X248785D01*
X277955Y335290D01*
X277448Y334412D01*
X276669Y331505D01*
Y328495D01*
X277448Y325588D01*
X278953Y322982D01*
X280494Y321441D01*
Y298558D01*
X278955Y297018D01*
X277450Y294412D01*
X276671Y291505D01*
Y288495D01*
X277450Y285588D01*
X278955Y282982D01*
X281083Y280854D01*
X283689Y279349D01*
X286596Y278570D01*
X289606D01*
X292513Y279349D01*
X295119Y280854D01*
X297247Y282982D01*
X298752Y285588D01*
X299531Y288495D01*
Y291505D01*
X298752Y294412D01*
X297247Y297018D01*
X295704Y298561D01*
Y321441D01*
X297246Y322982D01*
X298750Y325588D01*
X299529Y328495D01*
Y331505D01*
X298750Y334412D01*
X297246Y337018D01*
X295117Y339146D01*
X294853Y339299D01*
X294685Y339703D01*
X293477Y341278D01*
X269534Y365222D01*
X270020Y366395D01*
X341885D01*
X342914Y365366D01*
X345546Y363846D01*
X348481Y363060D01*
X351519D01*
X354454Y363846D01*
X357086Y365366D01*
X359234Y367514D01*
X360754Y370146D01*
X361540Y373081D01*
Y376119D01*
X360754Y379054D01*
X359234Y381686D01*
X357086Y383834D01*
X354454Y385354D01*
X351519Y386140D01*
D02*
G37*
G36*
X589604Y341430D02*
X589369D01*
Y331270D01*
X599529D01*
Y331505D01*
X598750Y334412D01*
X597245Y337018D01*
X595117Y339146D01*
X592511Y340651D01*
X589604Y341430D01*
D02*
G37*
G36*
X586829D02*
X586594D01*
X583687Y340651D01*
X581081Y339146D01*
X578953Y337018D01*
X577448Y334412D01*
X576669Y331505D01*
Y331270D01*
X586829D01*
Y341430D01*
D02*
G37*
G36*
X599529Y328730D02*
X589369D01*
Y318570D01*
X589604D01*
X592511Y319349D01*
X595117Y320854D01*
X597245Y322982D01*
X598750Y325588D01*
X599529Y328495D01*
Y328730D01*
D02*
G37*
G36*
X586829D02*
X576669D01*
Y328495D01*
X577448Y325588D01*
X578953Y322982D01*
X581081Y320854D01*
X583687Y319349D01*
X586594Y318570D01*
X586829D01*
Y328730D01*
D02*
G37*
G36*
X474020Y331521D02*
Y315090D01*
X482998D01*
Y321440D01*
X482649Y324092D01*
X481625Y326564D01*
X479996Y328686D01*
X477874Y330315D01*
X475402Y331339D01*
X474020Y331521D01*
D02*
G37*
G36*
X471480Y331521D02*
X470098Y331339D01*
X467626Y330315D01*
X465504Y328686D01*
X463875Y326564D01*
X462851Y324092D01*
X462502Y321440D01*
Y315090D01*
X471480D01*
Y331521D01*
D02*
G37*
G36*
Y312550D02*
X462502D01*
Y306200D01*
X462851Y303548D01*
X463875Y301076D01*
X465504Y298954D01*
X467626Y297325D01*
X470098Y296301D01*
X471480Y296119D01*
Y312550D01*
D02*
G37*
G36*
X482998D02*
X474020D01*
Y296119D01*
X475402Y296301D01*
X477874Y297325D01*
X479996Y298954D01*
X481625Y301076D01*
X482649Y303548D01*
X482998Y306200D01*
Y312550D01*
D02*
G37*
G36*
X213406Y301430D02*
X213171D01*
Y291270D01*
X223331D01*
Y291505D01*
X222552Y294412D01*
X221047Y297018D01*
X218919Y299146D01*
X216313Y300651D01*
X213406Y301430D01*
D02*
G37*
G36*
X210631D02*
X210396D01*
X207489Y300651D01*
X204883Y299146D01*
X202754Y297018D01*
X201250Y294412D01*
X200471Y291505D01*
Y291270D01*
X210631D01*
Y301430D01*
D02*
G37*
G36*
X223331Y288730D02*
X213171D01*
Y278570D01*
X213406D01*
X216313Y279349D01*
X218919Y280854D01*
X221047Y282982D01*
X222552Y285588D01*
X223331Y288495D01*
Y288730D01*
D02*
G37*
G36*
X210631D02*
X200471D01*
Y288495D01*
X201250Y285588D01*
X202754Y282982D01*
X204883Y280854D01*
X207489Y279349D01*
X210396Y278570D01*
X210631D01*
Y288730D01*
D02*
G37*
G36*
X380000Y339105D02*
X378032Y338846D01*
X377293Y338540D01*
X370960D01*
Y324460D01*
X372395D01*
Y313150D01*
X356522Y297278D01*
X355314Y295702D01*
X354554Y293868D01*
X354295Y291900D01*
Y280165D01*
X349835D01*
Y256035D01*
X373965D01*
Y280165D01*
X369505D01*
Y288750D01*
X385378Y304622D01*
X386586Y306197D01*
X386901Y306957D01*
X387346Y308032D01*
X387605Y310000D01*
Y324460D01*
X389040D01*
Y338540D01*
X382707D01*
X381968Y338846D01*
X380000Y339105D01*
D02*
G37*
G36*
X501020Y238613D02*
Y231020D01*
X508613D01*
X508034Y233181D01*
X506864Y235209D01*
X505209Y236864D01*
X503181Y238034D01*
X501020Y238613D01*
D02*
G37*
G36*
X498480D02*
X496319Y238034D01*
X494291Y236864D01*
X492636Y235209D01*
X491466Y233181D01*
X490887Y231020D01*
X498480D01*
Y238613D01*
D02*
G37*
G36*
X430000Y339105D02*
X428032Y338846D01*
X427293Y338540D01*
X420960D01*
Y324460D01*
X422395D01*
Y312400D01*
X405622Y295628D01*
X404414Y294053D01*
X403654Y292218D01*
X403395Y290250D01*
Y250750D01*
X403654Y248782D01*
X404414Y246947D01*
X405622Y245372D01*
X413672Y237322D01*
X415247Y236114D01*
X417082Y235354D01*
X419050Y235095D01*
X428643D01*
X430692Y233046D01*
X433443Y231457D01*
X436512Y230635D01*
X439688D01*
X442757Y231457D01*
X445508Y233046D01*
X447754Y235292D01*
X449343Y238043D01*
X450165Y241112D01*
Y244288D01*
X449343Y247357D01*
X447754Y250108D01*
X445508Y252354D01*
X442757Y253943D01*
X439688Y254765D01*
X436512D01*
X433443Y253943D01*
X430692Y252354D01*
X428643Y250305D01*
X422200D01*
X418605Y253900D01*
Y287100D01*
X435378Y303872D01*
X436586Y305448D01*
X437346Y307282D01*
X437605Y309250D01*
Y324460D01*
X439040D01*
Y338540D01*
X432707D01*
X431968Y338846D01*
X430000Y339105D01*
D02*
G37*
G36*
X508613Y228480D02*
X490887D01*
X491466Y226319D01*
X492636Y224291D01*
X493618Y223310D01*
X493092Y222040D01*
X489460D01*
Y214520D01*
X499750D01*
X510040D01*
Y222040D01*
X506408D01*
X505882Y223310D01*
X506864Y224291D01*
X508034Y226319D01*
X508613Y228480D01*
D02*
G37*
G36*
X363488Y254765D02*
X360312D01*
X357243Y253943D01*
X354492Y252354D01*
X352246Y250108D01*
X350657Y247357D01*
X349835Y244288D01*
Y241112D01*
X350657Y238043D01*
X352246Y235292D01*
X354492Y233046D01*
X357243Y231457D01*
X360312Y230635D01*
X363488D01*
X366557Y231457D01*
X369308Y233046D01*
X371357Y235095D01*
X373650D01*
X392552Y216193D01*
X392395Y215000D01*
Y154507D01*
X392032Y154356D01*
X390573Y153237D01*
X389454Y151778D01*
X388750Y150078D01*
X388510Y148255D01*
Y131745D01*
X388750Y129922D01*
X389454Y128222D01*
X390573Y126763D01*
X392032Y125644D01*
X393731Y124940D01*
X395555Y124700D01*
X404445D01*
X406268Y124940D01*
X407968Y125644D01*
X409427Y126763D01*
X410546Y128222D01*
X411250Y129922D01*
X411490Y131745D01*
Y148255D01*
X411250Y150078D01*
X410546Y151778D01*
X409427Y153237D01*
X407968Y154356D01*
X407605Y154507D01*
Y209645D01*
X428693D01*
X430692Y207646D01*
X433443Y206057D01*
X436512Y205235D01*
X439688D01*
X442757Y206057D01*
X445508Y207646D01*
X447754Y209892D01*
X449343Y212643D01*
X450165Y215712D01*
Y218888D01*
X449343Y221957D01*
X447754Y224708D01*
X445508Y226954D01*
X442757Y228543D01*
X439688Y229365D01*
X436512D01*
X433443Y228543D01*
X430692Y226954D01*
X428593Y224855D01*
X405400D01*
X382178Y248078D01*
X380602Y249286D01*
X378768Y250046D01*
X376800Y250305D01*
X371357D01*
X369308Y252354D01*
X366557Y253943D01*
X363488Y254765D01*
D02*
G37*
G36*
X105080Y365936D02*
X94920D01*
X89840Y360856D01*
Y350696D01*
X94920Y345616D01*
X100867D01*
X232866Y213616D01*
X234534Y212502D01*
X236500Y212111D01*
X293960D01*
Y208460D01*
X314540D01*
Y212111D01*
X350964D01*
X352246Y209892D01*
X354492Y207646D01*
X357243Y206057D01*
X360312Y205235D01*
X363488D01*
X366557Y206057D01*
X369308Y207646D01*
X371554Y209892D01*
X373143Y212643D01*
X373965Y215712D01*
Y218888D01*
X373143Y221957D01*
X371554Y224708D01*
X369308Y226954D01*
X366557Y228543D01*
X363488Y229365D01*
X360312D01*
X357243Y228543D01*
X354492Y226954D01*
X352246Y224708D01*
X350906Y222389D01*
X314540D01*
Y226040D01*
X293960D01*
Y222389D01*
X238629D01*
X110160Y350857D01*
Y360856D01*
X105080Y365936D01*
D02*
G37*
G36*
X510040Y211980D02*
X501020D01*
Y204460D01*
X510040D01*
Y211980D01*
D02*
G37*
G36*
X498480D02*
X489460D01*
Y204460D01*
X498480D01*
Y211980D01*
D02*
G37*
G36*
X314540Y205540D02*
X305520D01*
Y198020D01*
X314540D01*
Y205540D01*
D02*
G37*
G36*
X302980D02*
X293960D01*
Y198020D01*
X302980D01*
Y205540D01*
D02*
G37*
G36*
X705080Y365936D02*
X694920D01*
X689840Y360856D01*
Y350696D01*
X694861Y345675D01*
Y335129D01*
X556772Y197039D01*
X510040D01*
Y201540D01*
X489460D01*
Y197039D01*
X449065D01*
X447754Y199308D01*
X445508Y201554D01*
X442757Y203143D01*
X439688Y203965D01*
X436512D01*
X433443Y203143D01*
X430692Y201554D01*
X428446Y199308D01*
X426857Y196557D01*
X426035Y193488D01*
Y190312D01*
X426857Y187243D01*
X428446Y184492D01*
X430692Y182246D01*
X433443Y180657D01*
X436512Y179835D01*
X439688D01*
X442757Y180657D01*
X445508Y182246D01*
X447754Y184492D01*
X449065Y186761D01*
X489460D01*
Y183960D01*
X510040D01*
Y186761D01*
X558900D01*
X560867Y187152D01*
X562534Y188266D01*
X703634Y329366D01*
X704748Y331034D01*
X705139Y333000D01*
Y345675D01*
X710160Y350696D01*
Y360856D01*
X705080Y365936D01*
D02*
G37*
G36*
X363488Y203965D02*
X363170D01*
Y193170D01*
X373965D01*
Y193488D01*
X373143Y196557D01*
X371554Y199308D01*
X369308Y201554D01*
X366557Y203143D01*
X363488Y203965D01*
D02*
G37*
G36*
X360630D02*
X360312D01*
X357243Y203143D01*
X354492Y201554D01*
X352246Y199308D01*
X350657Y196557D01*
X349835Y193488D01*
Y193170D01*
X360630D01*
Y203965D01*
D02*
G37*
G36*
X151338Y200160D02*
X151270D01*
Y191270D01*
X160160D01*
Y191338D01*
X159468Y193922D01*
X158130Y196238D01*
X156238Y198130D01*
X153922Y199468D01*
X151338Y200160D01*
D02*
G37*
G36*
X148730D02*
X148662D01*
X146078Y199468D01*
X143762Y198130D01*
X141870Y196238D01*
X140532Y193922D01*
X139840Y191338D01*
Y191270D01*
X148730D01*
Y200160D01*
D02*
G37*
G36*
X314540Y195480D02*
X293960D01*
Y187960D01*
X298092D01*
X298618Y186690D01*
X297386Y185459D01*
X296216Y183431D01*
X295637Y181270D01*
X313363D01*
X312784Y183431D01*
X311614Y185459D01*
X310382Y186690D01*
X310908Y187960D01*
X314540D01*
Y195480D01*
D02*
G37*
G36*
X160160Y188730D02*
X151270D01*
Y179840D01*
X151338D01*
X153922Y180532D01*
X156238Y181870D01*
X158130Y183762D01*
X159468Y186078D01*
X160160Y188662D01*
Y188730D01*
D02*
G37*
G36*
X148730D02*
X139840D01*
Y188662D01*
X140532Y186078D01*
X141870Y183762D01*
X143762Y181870D01*
X146078Y180532D01*
X148662Y179840D01*
X148730D01*
Y188730D01*
D02*
G37*
G36*
X373965Y190630D02*
X363170D01*
Y179835D01*
X363488D01*
X366557Y180657D01*
X369308Y182246D01*
X371554Y184492D01*
X373143Y187243D01*
X373965Y190312D01*
Y190630D01*
D02*
G37*
G36*
X360630D02*
X349835D01*
Y190312D01*
X350657Y187243D01*
X352246Y184492D01*
X354492Y182246D01*
X357243Y180657D01*
X360312Y179835D01*
X360630D01*
Y190630D01*
D02*
G37*
G36*
X313363Y178730D02*
X305770D01*
Y171137D01*
X307931Y171716D01*
X309959Y172886D01*
X311614Y174541D01*
X312784Y176569D01*
X313363Y178730D01*
D02*
G37*
G36*
X303230D02*
X295637D01*
X296216Y176569D01*
X297386Y174541D01*
X299041Y172886D01*
X301069Y171716D01*
X303230Y171137D01*
Y178730D01*
D02*
G37*
G36*
X379045Y155300D02*
X375870D01*
Y141270D01*
X386090D01*
Y148255D01*
X385850Y150078D01*
X385146Y151778D01*
X384027Y153237D01*
X382568Y154356D01*
X380868Y155060D01*
X379045Y155300D01*
D02*
G37*
G36*
X373330D02*
X370155D01*
X368331Y155060D01*
X366632Y154356D01*
X365173Y153237D01*
X364054Y151778D01*
X363350Y150078D01*
X363110Y148255D01*
Y141270D01*
X373330D01*
Y155300D01*
D02*
G37*
G36*
X386090Y138730D02*
X375870D01*
Y124700D01*
X379045D01*
X380868Y124940D01*
X382568Y125644D01*
X384027Y126763D01*
X385146Y128222D01*
X385850Y129922D01*
X386090Y131745D01*
Y138730D01*
D02*
G37*
G36*
X373330D02*
X363110D01*
Y131745D01*
X363350Y129922D01*
X364054Y128222D01*
X365173Y126763D01*
X366632Y125644D01*
X368331Y124940D01*
X370155Y124700D01*
X373330D01*
Y138730D01*
D02*
G37*
G36*
X172583Y113540D02*
X172070D01*
Y101270D01*
X184340D01*
Y101783D01*
X183417Y105226D01*
X181635Y108314D01*
X179114Y110835D01*
X176026Y112617D01*
X172583Y113540D01*
D02*
G37*
G36*
X169530D02*
X169017D01*
X165574Y112617D01*
X162486Y110835D01*
X159965Y108314D01*
X158183Y105226D01*
X157260Y101783D01*
Y101270D01*
X169530D01*
Y113540D01*
D02*
G37*
G36*
X621783D02*
X618217D01*
X614774Y112617D01*
X611686Y110835D01*
X609165Y108314D01*
X607383Y105226D01*
X606460Y101783D01*
Y98217D01*
X607383Y94774D01*
X609165Y91686D01*
X611686Y89165D01*
X614774Y87383D01*
X618217Y86460D01*
X621783D01*
X625226Y87383D01*
X628314Y89165D01*
X630835Y91686D01*
X632617Y94774D01*
X633540Y98217D01*
Y101783D01*
X632617Y105226D01*
X630835Y108314D01*
X628314Y110835D01*
X625226Y112617D01*
X621783Y113540D01*
D02*
G37*
G36*
X184340Y98730D02*
X172070D01*
Y86460D01*
X172583D01*
X176026Y87383D01*
X179114Y89165D01*
X181635Y91686D01*
X183417Y94774D01*
X184340Y98217D01*
Y98730D01*
D02*
G37*
G36*
X169530D02*
X157260D01*
Y98217D01*
X158183Y94774D01*
X159965Y91686D01*
X162486Y89165D01*
X165574Y87383D01*
X169017Y86460D01*
X169530D01*
Y98730D01*
D02*
G37*
G36*
X473660Y93010D02*
X427940D01*
Y47290D01*
X473660D01*
Y93010D01*
D02*
G37*
G36*
X372060D02*
X326340D01*
Y47290D01*
X372060D01*
Y93010D01*
D02*
G37*
G36*
X749460Y69000D02*
X745808D01*
X742226Y68288D01*
X738852Y66890D01*
X735816Y64861D01*
X733233Y62279D01*
X731204Y59242D01*
X729807Y55868D01*
X729094Y52286D01*
Y48634D01*
X729807Y45052D01*
X731204Y41678D01*
X733233Y38642D01*
X735816Y36059D01*
X738852Y34030D01*
X742226Y32633D01*
X745808Y31920D01*
X749460D01*
X753042Y32633D01*
X756416Y34030D01*
X759453Y36059D01*
X762035Y38642D01*
X764064Y41678D01*
X765462Y45052D01*
X766174Y48634D01*
Y52286D01*
X765462Y55868D01*
X764064Y59242D01*
X762035Y62279D01*
X759453Y64861D01*
X756416Y66890D01*
X753042Y68288D01*
X749460Y69000D01*
D02*
G37*
G36*
X51826Y68540D02*
X48174D01*
X44592Y67828D01*
X41218Y66430D01*
X38181Y64401D01*
X35599Y61819D01*
X33570Y58782D01*
X32173Y55408D01*
X31460Y51826D01*
Y48174D01*
X32173Y44592D01*
X33570Y41218D01*
X35599Y38181D01*
X38181Y35599D01*
X41218Y33570D01*
X44592Y32173D01*
X48174Y31460D01*
X51826D01*
X55408Y32173D01*
X58782Y33570D01*
X61819Y35599D01*
X64401Y38181D01*
X66430Y41218D01*
X67828Y44592D01*
X68540Y48174D01*
Y51826D01*
X67828Y55408D01*
X66430Y58782D01*
X64401Y61819D01*
X61819Y64401D01*
X58782Y66430D01*
X55408Y67828D01*
X51826Y68540D01*
D02*
G37*
%LPD*%
G54D10*
X446228Y268100D02*
G03*
X432353Y273847I-8128J0D01*
G01*
X353772Y217300D02*
G03*
X353772Y217250I8128J0D01*
G01*
D02*
G03*
X356153Y211553I8128J50D01*
G01*
X432353D02*
G03*
X446228Y217300I5747J5747D01*
G01*
X429977Y217000D02*
G03*
X432353Y211553I8123J300D01*
G01*
X429972Y217250D02*
G03*
X429977Y217000I8128J50D01*
G01*
X429972Y217300D02*
G03*
X429972Y217250I8128J0D01*
G01*
X370028Y242700D02*
G03*
X367647Y236953I-8128J0D01*
G01*
X429972Y242700D02*
G03*
X446228Y242700I8128J0D01*
G01*
X431967Y248033D02*
G03*
X429972Y242700I6133J-5333D01*
G01*
X446228D02*
G03*
X432353Y248447I-8128J0D01*
G01*
D02*
G03*
X431967Y248033I5747J-5747D01*
G01*
X446228Y191900D02*
G03*
X446228Y191900I-8128J0D01*
G01*
X356153Y211553D02*
G03*
X370028Y217300I5747J5747D01*
G01*
X446228D02*
G03*
X432353Y223047I-8128J0D01*
G01*
D02*
G03*
X430434Y220000I5747J-5747D01*
G01*
X432353Y273847D02*
G03*
X446228Y268100I5747J-5747D01*
G01*
X353828Y218250D02*
G03*
X353772Y217300I8072J-950D01*
G01*
X430434Y220000D02*
G03*
X429972Y217300I7667J-2700D01*
G01*
X370028Y191900D02*
G03*
X370028Y191900I-8128J0D01*
G01*
Y217300D02*
G03*
X353828Y218250I-8128J0D01*
G01*
X367647Y236953D02*
G03*
X369998Y242000I-5747J5747D01*
G01*
D02*
G03*
X370028Y242700I-8098J700D01*
G01*
X800000Y450000D02*
G03*
X750000Y500000I-50000J0D01*
G01*
Y0D02*
G03*
X800000Y50000I0J50000D01*
G01*
X50000Y500000D02*
G03*
X0Y450000I0J-50000D01*
G01*
Y50000D02*
G03*
X50000Y0I50000J0D01*
G01*
X750000D01*
X800000Y50000D02*
Y450000D01*
X50000Y500000D02*
X750000D01*
X0Y50000D02*
Y450000D01*
G54D17*
X499750Y192750D02*
D03*
Y213250D02*
D03*
X304250Y217250D02*
D03*
Y196750D02*
D03*
G54D36*
X380000Y331500D02*
D03*
Y348500D02*
D03*
X430000D02*
D03*
Y331500D02*
D03*
G54D37*
X446228Y268100D02*
X472750D01*
X481900D01*
X497000Y253000D01*
X561101D01*
X588101Y280000D01*
X438100Y268100D02*
X446228D01*
X134000Y384000D02*
X164000Y414000D01*
X100000Y384000D02*
X134000D01*
X84000D02*
X100000D01*
X62250Y362250D02*
X84000Y384000D01*
X62250Y347750D02*
Y362250D01*
Y347750D02*
X124600Y285400D01*
X736000Y312250D02*
Y369000D01*
X721000Y384000D02*
X736000Y369000D01*
X700000Y384000D02*
X721000D01*
X699500Y383500D02*
X700000Y384000D01*
X668000Y383500D02*
X699500D01*
X647500Y363000D02*
X668000Y383500D01*
X647500Y339399D02*
Y363000D01*
X770000Y280000D02*
Y370000D01*
X730000Y410000D02*
X770000Y370000D01*
X610000Y410000D02*
X730000D01*
X670800Y180800D02*
X770000Y280000D01*
X574000Y374000D02*
X610000Y410000D01*
X151000Y257500D02*
X298750Y109750D01*
X124600Y257500D02*
X151000D01*
X124600D02*
Y285400D01*
Y190000D02*
Y257500D01*
X298750Y109750D02*
X419750D01*
X124600Y104600D02*
Y190000D01*
X120000Y100000D02*
X124600Y104600D01*
X670800Y100000D02*
Y180800D01*
X563750Y140000D02*
X736000Y312250D01*
X425400Y140000D02*
X563750D01*
X588101Y280000D02*
X647500Y339399D01*
X402250Y217250D02*
X429972D01*
X400000Y215000D02*
X402250Y217250D01*
X400000Y140000D02*
Y215000D01*
X429972Y217250D02*
X438050D01*
X370028Y242700D02*
X376800D01*
X361900D02*
X370028D01*
X438050Y217250D02*
X438100Y217300D01*
X376800Y242700D02*
X402250Y217250D01*
X429972Y242700D02*
X438100D01*
X419050D02*
X429972D01*
X411000Y250750D02*
X419050Y242700D01*
X411000Y250750D02*
Y290250D01*
X430000Y309250D01*
Y331500D01*
X361900Y291900D02*
X380000Y310000D01*
X361900Y268100D02*
Y291900D01*
X440000Y400000D02*
X450000D01*
X430000Y390000D02*
X440000Y400000D01*
X430000Y348500D02*
Y390000D01*
X380000Y348500D02*
Y387500D01*
X367500Y400000D02*
X380000Y387500D01*
X350000Y400000D02*
X367500D01*
X419750Y109750D02*
X425400Y115400D01*
X550000Y374000D02*
X574000D01*
X425400Y115400D02*
Y140000D01*
X164000Y414000D02*
X211899Y366101D01*
Y330000D02*
Y366101D01*
X288099Y290002D02*
X288101Y290000D01*
X288099Y290002D02*
Y330000D01*
Y335901D01*
X250000Y374000D02*
X288099Y335901D01*
X511899Y280002D02*
X511901Y280000D01*
X511899Y280002D02*
Y330000D01*
Y335899D01*
X550000Y374000D01*
X549400Y374600D02*
X550000Y374000D01*
X450000Y374600D02*
X549400D01*
X450000Y400000D02*
X550000D01*
X288099Y289998D02*
X288101Y290000D01*
X349400Y374000D02*
X350000Y374600D01*
X250000Y374000D02*
X349400D01*
X250000Y400000D02*
X350000D01*
Y425400D02*
X450000D01*
X325400Y450000D02*
X350000Y425400D01*
X200000Y450000D02*
X325400D01*
X164000Y414000D02*
X200000Y450000D01*
X380000Y310000D02*
Y331500D01*
G54D38*
X100000Y353750D02*
Y355776D01*
Y353750D02*
X236500Y217250D01*
X353772D02*
X361850D01*
X304250D02*
X353772D01*
X700000Y333000D02*
Y355776D01*
X446228Y191900D02*
X558900D01*
X236500Y217250D02*
X304250D01*
X499750Y213250D02*
Y229750D01*
X304250Y180250D02*
Y196750D01*
Y180250D02*
X304500Y180000D01*
X361850Y217250D02*
X361900Y217300D01*
X558900Y191900D02*
X700000Y333000D01*
X438100Y191900D02*
X446228D01*
G54D39*
X361900Y268100D02*
D03*
G54D40*
X472750Y313820D02*
D03*
Y273180D02*
D03*
G54D41*
Y318900D02*
D03*
Y268100D02*
D03*
X747634Y50460D02*
D03*
X50000Y450000D02*
D03*
X750000D02*
D03*
X150000Y190000D02*
D03*
X50000Y50000D02*
D03*
G54D42*
X100000Y355776D02*
D03*
Y384000D02*
D03*
X700000D02*
D03*
Y355776D02*
D03*
G54D43*
X211899Y330000D02*
D03*
X288099D02*
D03*
X511901Y280000D02*
D03*
X588101D02*
D03*
X588099Y330000D02*
D03*
X511899D02*
D03*
X211901Y290000D02*
D03*
X288101D02*
D03*
G54D44*
X438100Y191900D02*
D03*
Y217300D02*
D03*
Y242700D02*
D03*
Y268100D02*
D03*
X361900Y191900D02*
D03*
Y217300D02*
D03*
Y242700D02*
D03*
G54D45*
Y268100D02*
D03*
G54D46*
X374600Y140000D02*
D03*
X400000D02*
D03*
X425400D02*
D03*
G54D47*
X349200Y70150D02*
D03*
X450800D02*
D03*
G54D48*
X124600Y190000D02*
D03*
G54D49*
X170800Y100000D02*
D03*
X120000D02*
D03*
X670800D02*
D03*
X620000D02*
D03*
G54D50*
X450000Y374600D02*
D03*
Y400000D02*
D03*
X350000Y374600D02*
D03*
Y400000D02*
D03*
G54D51*
X450000Y425400D02*
D03*
X350000D02*
D03*
G54D52*
X550000Y426000D02*
D03*
X250000D02*
D03*
G54D53*
X550000Y374000D02*
D03*
Y400000D02*
D03*
X250000Y374000D02*
D03*
Y400000D02*
D03*
G54D54*
X304500Y180000D02*
D03*
X499750Y229750D02*
D03*
M02*
