G04*
G04 #@! TF.GenerationSoftware,Altium Limited,CircuitMaker,2.2.1 (2.2.1.6)*
G04*
G04 Layer_Color=15132400*
%FSLAX44Y44*%
%MOMM*%
G71*
G04*
G04 #@! TF.SameCoordinates,B7FF0B77-2EFF-419A-B724-F2A86093BB65*
G04*
G04*
G04 #@! TF.FilePolarity,Positive*
G04*
G01*
G75*
%ADD10C,0.2540*%
%ADD11C,0.1270*%
%ADD12C,0.2500*%
%ADD13C,0.2000*%
%ADD14C,0.0500*%
%ADD15C,0.1000*%
%ADD16C,0.2032*%
G36*
X400661Y257490D02*
X400716Y257472D01*
X400790Y257444D01*
X400873Y257416D01*
X400975Y257379D01*
X401086Y257333D01*
X401206Y257278D01*
X401465Y257148D01*
X401724Y256982D01*
X401853Y256880D01*
X401983Y256778D01*
X402094Y256667D01*
X402205Y256538D01*
X402214Y256529D01*
X402232Y256510D01*
X402251Y256464D01*
X402288Y256418D01*
X402334Y256344D01*
X402380Y256270D01*
X402426Y256168D01*
X402473Y256066D01*
X402528Y255946D01*
X402574Y255817D01*
X402621Y255678D01*
X402667Y255530D01*
X402704Y255373D01*
X402722Y255207D01*
X402741Y255031D01*
X402750Y254846D01*
Y254744D01*
X402741Y254670D01*
Y254587D01*
X402732Y254485D01*
X402713Y254375D01*
X402695Y254245D01*
X402648Y253977D01*
X402574Y253700D01*
X402473Y253422D01*
X402408Y253293D01*
X402334Y253163D01*
X402325Y253154D01*
X402315Y253136D01*
X402288Y253099D01*
X402251Y253062D01*
X402214Y253006D01*
X402158Y252941D01*
X402094Y252868D01*
X402020Y252794D01*
X401936Y252720D01*
X401853Y252636D01*
X401641Y252470D01*
X401391Y252313D01*
X401114Y252174D01*
X401104D01*
X401077Y252156D01*
X401030Y252146D01*
X400975Y252119D01*
X400901Y252100D01*
X400808Y252072D01*
X400707Y252035D01*
X400596Y252008D01*
X400476Y251980D01*
X400337Y251943D01*
X400050Y251897D01*
X399727Y251860D01*
X399394Y251841D01*
X399385D01*
X399348D01*
X399292D01*
X399227Y251850D01*
X399135D01*
X399043Y251860D01*
X398922Y251869D01*
X398802Y251887D01*
X398534Y251934D01*
X398238Y251998D01*
X397942Y252091D01*
X397656Y252220D01*
X397646Y252230D01*
X397619Y252239D01*
X397582Y252257D01*
X397536Y252294D01*
X397471Y252331D01*
X397397Y252377D01*
X397230Y252498D01*
X397046Y252655D01*
X396861Y252840D01*
X396676Y253052D01*
X396519Y253302D01*
X396509Y253311D01*
X396500Y253339D01*
X396482Y253376D01*
X396454Y253422D01*
X396426Y253496D01*
X396398Y253570D01*
X396361Y253663D01*
X396324Y253764D01*
X396287Y253875D01*
X396250Y253995D01*
X396195Y254254D01*
X396149Y254550D01*
X396130Y254855D01*
Y254948D01*
X396139Y255012D01*
X396149Y255096D01*
X396158Y255197D01*
X396167Y255299D01*
X396195Y255419D01*
X396250Y255669D01*
X396334Y255946D01*
X396389Y256085D01*
X396454Y256214D01*
X396537Y256344D01*
X396620Y256473D01*
X396629Y256483D01*
X396639Y256501D01*
X396666Y256538D01*
X396713Y256584D01*
X396759Y256630D01*
X396824Y256695D01*
X396898Y256760D01*
X396972Y256834D01*
X397064Y256908D01*
X397175Y256982D01*
X397286Y257065D01*
X397406Y257139D01*
X397545Y257204D01*
X397683Y257278D01*
X397831Y257333D01*
X397998Y257389D01*
X398192Y256556D01*
X398183D01*
X398164Y256547D01*
X398127Y256529D01*
X398081Y256510D01*
X398026Y256492D01*
X397952Y256464D01*
X397804Y256390D01*
X397637Y256298D01*
X397471Y256187D01*
X397314Y256048D01*
X397175Y255900D01*
X397156Y255882D01*
X397119Y255826D01*
X397073Y255734D01*
X397009Y255613D01*
X396953Y255456D01*
X396898Y255281D01*
X396861Y255068D01*
X396851Y254837D01*
Y254763D01*
X396861Y254717D01*
Y254652D01*
X396870Y254578D01*
X396898Y254402D01*
X396935Y254208D01*
X396999Y254005D01*
X397092Y253792D01*
X397212Y253598D01*
Y253589D01*
X397230Y253579D01*
X397277Y253515D01*
X397351Y253431D01*
X397462Y253330D01*
X397600Y253210D01*
X397757Y253099D01*
X397952Y252997D01*
X398164Y252904D01*
X398173D01*
X398192Y252895D01*
X398220Y252886D01*
X398266Y252877D01*
X398321Y252858D01*
X398386Y252840D01*
X398543Y252812D01*
X398728Y252775D01*
X398932Y252738D01*
X399154Y252720D01*
X399394Y252710D01*
X399403D01*
X399431D01*
X399477D01*
X399533D01*
X399597Y252720D01*
X399680D01*
X399773Y252729D01*
X399875Y252738D01*
X400097Y252766D01*
X400337Y252812D01*
X400577Y252868D01*
X400818Y252941D01*
X400827D01*
X400845Y252951D01*
X400873Y252969D01*
X400919Y252988D01*
X401030Y253043D01*
X401160Y253126D01*
X401308Y253228D01*
X401465Y253358D01*
X401604Y253505D01*
X401733Y253681D01*
Y253690D01*
X401742Y253709D01*
X401761Y253737D01*
X401779Y253774D01*
X401798Y253820D01*
X401825Y253875D01*
X401881Y254005D01*
X401936Y254171D01*
X401983Y254356D01*
X402020Y254559D01*
X402029Y254772D01*
Y254837D01*
X402020Y254892D01*
Y254957D01*
X402010Y255022D01*
X401973Y255188D01*
X401927Y255382D01*
X401853Y255576D01*
X401752Y255780D01*
X401696Y255882D01*
X401622Y255974D01*
X401613Y255983D01*
X401604Y255993D01*
X401576Y256020D01*
X401548Y256057D01*
X401502Y256094D01*
X401446Y256140D01*
X401391Y256196D01*
X401317Y256242D01*
X401234Y256298D01*
X401141Y256362D01*
X401049Y256418D01*
X400938Y256473D01*
X400818Y256520D01*
X400688Y256566D01*
X400550Y256612D01*
X400402Y256649D01*
X400614Y257500D01*
X400624D01*
X400661Y257490D01*
D02*
G37*
G36*
X402639Y247080D02*
X396241D01*
Y247930D01*
X401881D01*
Y251083D01*
X402639D01*
Y247080D01*
D02*
G37*
G36*
X400808Y245721D02*
X400882D01*
X401058Y245702D01*
X401261Y245684D01*
X401474Y245647D01*
X401668Y245591D01*
X401853Y245527D01*
X401862D01*
X401872Y245517D01*
X401927Y245490D01*
X402001Y245443D01*
X402103Y245379D01*
X402205Y245286D01*
X402315Y245184D01*
X402426Y245055D01*
X402519Y244907D01*
X402528Y244889D01*
X402556Y244833D01*
X402593Y244750D01*
X402630Y244630D01*
X402676Y244482D01*
X402713Y244315D01*
X402741Y244130D01*
X402750Y243927D01*
Y243844D01*
X402741Y243788D01*
X402732Y243714D01*
X402722Y243640D01*
X402685Y243446D01*
X402630Y243243D01*
X402547Y243030D01*
X402491Y242919D01*
X402426Y242817D01*
X402352Y242725D01*
X402269Y242633D01*
X402260Y242623D01*
X402251Y242614D01*
X402214Y242596D01*
X402177Y242568D01*
X402131Y242531D01*
X402066Y242494D01*
X401992Y242457D01*
X401909Y242411D01*
X401816Y242374D01*
X401705Y242337D01*
X401594Y242300D01*
X401465Y242263D01*
X401326Y242244D01*
X401169Y242217D01*
X401012Y242207D01*
X400836D01*
X400725Y242975D01*
X400734D01*
X400753D01*
X400790D01*
X400845Y242984D01*
X400901Y242993D01*
X400966D01*
X401123Y243021D01*
X401289Y243049D01*
X401456Y243104D01*
X401604Y243160D01*
X401668Y243197D01*
X401724Y243243D01*
X401733Y243252D01*
X401761Y243289D01*
X401807Y243344D01*
X401853Y243419D01*
X401909Y243520D01*
X401946Y243631D01*
X401983Y243770D01*
X401992Y243918D01*
Y243973D01*
X401983Y244029D01*
X401973Y244112D01*
X401955Y244195D01*
X401936Y244288D01*
X401899Y244380D01*
X401853Y244473D01*
X401844Y244482D01*
X401825Y244510D01*
X401788Y244547D01*
X401752Y244602D01*
X401687Y244648D01*
X401622Y244704D01*
X401548Y244750D01*
X401456Y244787D01*
X401446D01*
X401409Y244805D01*
X401345Y244815D01*
X401261Y244833D01*
X401151Y244852D01*
X401012Y244861D01*
X400845Y244879D01*
X400651D01*
X396241D01*
Y245730D01*
X400605D01*
X400614D01*
X400642D01*
X400679D01*
X400734D01*
X400808Y245721D01*
D02*
G37*
G36*
X400661Y241588D02*
X400716Y241569D01*
X400790Y241542D01*
X400873Y241514D01*
X400975Y241477D01*
X401086Y241431D01*
X401206Y241375D01*
X401465Y241246D01*
X401724Y241079D01*
X401853Y240978D01*
X401983Y240876D01*
X402094Y240765D01*
X402205Y240636D01*
X402214Y240626D01*
X402232Y240608D01*
X402251Y240562D01*
X402288Y240515D01*
X402334Y240441D01*
X402380Y240368D01*
X402426Y240266D01*
X402473Y240164D01*
X402528Y240044D01*
X402574Y239914D01*
X402621Y239776D01*
X402667Y239628D01*
X402704Y239471D01*
X402722Y239304D01*
X402741Y239129D01*
X402750Y238944D01*
Y238842D01*
X402741Y238768D01*
Y238685D01*
X402732Y238583D01*
X402713Y238472D01*
X402695Y238343D01*
X402648Y238075D01*
X402574Y237797D01*
X402473Y237520D01*
X402408Y237390D01*
X402334Y237261D01*
X402325Y237252D01*
X402315Y237233D01*
X402288Y237196D01*
X402251Y237159D01*
X402214Y237104D01*
X402158Y237039D01*
X402094Y236965D01*
X402020Y236891D01*
X401936Y236817D01*
X401853Y236734D01*
X401641Y236567D01*
X401391Y236410D01*
X401114Y236272D01*
X401104D01*
X401077Y236253D01*
X401030Y236244D01*
X400975Y236216D01*
X400901Y236198D01*
X400808Y236170D01*
X400707Y236133D01*
X400596Y236105D01*
X400476Y236077D01*
X400337Y236040D01*
X400050Y235994D01*
X399727Y235957D01*
X399394Y235939D01*
X399385D01*
X399348D01*
X399292D01*
X399227Y235948D01*
X399135D01*
X399043Y235957D01*
X398922Y235967D01*
X398802Y235985D01*
X398534Y236031D01*
X398238Y236096D01*
X397942Y236189D01*
X397656Y236318D01*
X397646Y236327D01*
X397619Y236336D01*
X397582Y236355D01*
X397536Y236392D01*
X397471Y236429D01*
X397397Y236475D01*
X397230Y236595D01*
X397046Y236752D01*
X396861Y236937D01*
X396676Y237150D01*
X396519Y237400D01*
X396509Y237409D01*
X396500Y237437D01*
X396482Y237474D01*
X396454Y237520D01*
X396426Y237594D01*
X396398Y237668D01*
X396361Y237760D01*
X396324Y237862D01*
X396287Y237973D01*
X396250Y238093D01*
X396195Y238352D01*
X396149Y238648D01*
X396130Y238953D01*
Y239045D01*
X396139Y239110D01*
X396149Y239193D01*
X396158Y239295D01*
X396167Y239397D01*
X396195Y239517D01*
X396250Y239767D01*
X396334Y240044D01*
X396389Y240183D01*
X396454Y240312D01*
X396537Y240441D01*
X396620Y240571D01*
X396629Y240580D01*
X396639Y240599D01*
X396666Y240636D01*
X396713Y240682D01*
X396759Y240728D01*
X396824Y240793D01*
X396898Y240858D01*
X396972Y240931D01*
X397064Y241005D01*
X397175Y241079D01*
X397286Y241163D01*
X397406Y241237D01*
X397545Y241301D01*
X397683Y241375D01*
X397831Y241431D01*
X397998Y241486D01*
X398192Y240654D01*
X398183D01*
X398164Y240645D01*
X398127Y240626D01*
X398081Y240608D01*
X398026Y240589D01*
X397952Y240562D01*
X397804Y240488D01*
X397637Y240395D01*
X397471Y240284D01*
X397314Y240146D01*
X397175Y239998D01*
X397156Y239979D01*
X397119Y239924D01*
X397073Y239831D01*
X397009Y239711D01*
X396953Y239554D01*
X396898Y239378D01*
X396861Y239165D01*
X396851Y238934D01*
Y238860D01*
X396861Y238814D01*
Y238750D01*
X396870Y238675D01*
X396898Y238500D01*
X396935Y238306D01*
X396999Y238102D01*
X397092Y237890D01*
X397212Y237696D01*
Y237686D01*
X397230Y237677D01*
X397277Y237612D01*
X397351Y237529D01*
X397462Y237427D01*
X397600Y237307D01*
X397757Y237196D01*
X397952Y237094D01*
X398164Y237002D01*
X398173D01*
X398192Y236993D01*
X398220Y236984D01*
X398266Y236974D01*
X398321Y236956D01*
X398386Y236937D01*
X398543Y236910D01*
X398728Y236873D01*
X398932Y236836D01*
X399154Y236817D01*
X399394Y236808D01*
X399403D01*
X399431D01*
X399477D01*
X399533D01*
X399597Y236817D01*
X399680D01*
X399773Y236826D01*
X399875Y236836D01*
X400097Y236863D01*
X400337Y236910D01*
X400577Y236965D01*
X400818Y237039D01*
X400827D01*
X400845Y237048D01*
X400873Y237067D01*
X400919Y237085D01*
X401030Y237141D01*
X401160Y237224D01*
X401308Y237326D01*
X401465Y237455D01*
X401604Y237603D01*
X401733Y237779D01*
Y237788D01*
X401742Y237806D01*
X401761Y237834D01*
X401779Y237871D01*
X401798Y237917D01*
X401825Y237973D01*
X401881Y238102D01*
X401936Y238269D01*
X401983Y238454D01*
X402020Y238657D01*
X402029Y238870D01*
Y238934D01*
X402020Y238990D01*
Y239055D01*
X402010Y239119D01*
X401973Y239286D01*
X401927Y239480D01*
X401853Y239674D01*
X401752Y239877D01*
X401696Y239979D01*
X401622Y240072D01*
X401613Y240081D01*
X401604Y240090D01*
X401576Y240118D01*
X401548Y240155D01*
X401502Y240192D01*
X401446Y240238D01*
X401391Y240294D01*
X401317Y240340D01*
X401234Y240395D01*
X401141Y240460D01*
X401049Y240515D01*
X400938Y240571D01*
X400818Y240617D01*
X400688Y240663D01*
X400550Y240710D01*
X400402Y240746D01*
X400614Y241597D01*
X400624D01*
X400661Y241588D01*
D02*
G37*
G36*
X402639Y231177D02*
X396241D01*
Y232028D01*
X401881D01*
Y235181D01*
X402639D01*
Y231177D01*
D02*
G37*
G36*
X400808Y229818D02*
X400882D01*
X401058Y229800D01*
X401261Y229781D01*
X401474Y229744D01*
X401668Y229689D01*
X401853Y229624D01*
X401862D01*
X401872Y229615D01*
X401927Y229587D01*
X402001Y229541D01*
X402103Y229476D01*
X402205Y229384D01*
X402315Y229282D01*
X402426Y229153D01*
X402519Y229005D01*
X402528Y228986D01*
X402556Y228931D01*
X402593Y228847D01*
X402630Y228727D01*
X402676Y228579D01*
X402713Y228413D01*
X402741Y228228D01*
X402750Y228025D01*
Y227941D01*
X402741Y227886D01*
X402732Y227812D01*
X402722Y227738D01*
X402685Y227544D01*
X402630Y227340D01*
X402547Y227128D01*
X402491Y227017D01*
X402426Y226915D01*
X402352Y226823D01*
X402269Y226730D01*
X402260Y226721D01*
X402251Y226712D01*
X402214Y226693D01*
X402177Y226665D01*
X402131Y226628D01*
X402066Y226591D01*
X401992Y226555D01*
X401909Y226508D01*
X401816Y226471D01*
X401705Y226434D01*
X401594Y226397D01*
X401465Y226360D01*
X401326Y226342D01*
X401169Y226314D01*
X401012Y226305D01*
X400836D01*
X400725Y227072D01*
X400734D01*
X400753D01*
X400790D01*
X400845Y227082D01*
X400901Y227091D01*
X400966D01*
X401123Y227118D01*
X401289Y227146D01*
X401456Y227202D01*
X401604Y227257D01*
X401668Y227294D01*
X401724Y227340D01*
X401733Y227350D01*
X401761Y227387D01*
X401807Y227442D01*
X401853Y227516D01*
X401909Y227618D01*
X401946Y227729D01*
X401983Y227867D01*
X401992Y228015D01*
Y228071D01*
X401983Y228126D01*
X401973Y228209D01*
X401955Y228293D01*
X401936Y228385D01*
X401899Y228478D01*
X401853Y228570D01*
X401844Y228579D01*
X401825Y228607D01*
X401788Y228644D01*
X401752Y228699D01*
X401687Y228746D01*
X401622Y228801D01*
X401548Y228847D01*
X401456Y228884D01*
X401446D01*
X401409Y228903D01*
X401345Y228912D01*
X401261Y228931D01*
X401151Y228949D01*
X401012Y228958D01*
X400845Y228977D01*
X400651D01*
X396241D01*
Y229827D01*
X400605D01*
X400614D01*
X400642D01*
X400679D01*
X400734D01*
X400808Y229818D01*
D02*
G37*
G36*
X400661Y225686D02*
X400716Y225667D01*
X400790Y225639D01*
X400873Y225611D01*
X400975Y225574D01*
X401086Y225528D01*
X401206Y225473D01*
X401465Y225343D01*
X401724Y225177D01*
X401853Y225075D01*
X401983Y224974D01*
X402094Y224863D01*
X402205Y224733D01*
X402214Y224724D01*
X402232Y224705D01*
X402251Y224659D01*
X402288Y224613D01*
X402334Y224539D01*
X402380Y224465D01*
X402426Y224363D01*
X402473Y224262D01*
X402528Y224141D01*
X402574Y224012D01*
X402621Y223873D01*
X402667Y223725D01*
X402704Y223568D01*
X402722Y223402D01*
X402741Y223226D01*
X402750Y223041D01*
Y222939D01*
X402741Y222866D01*
Y222782D01*
X402732Y222681D01*
X402713Y222570D01*
X402695Y222440D01*
X402648Y222172D01*
X402574Y221895D01*
X402473Y221617D01*
X402408Y221488D01*
X402334Y221359D01*
X402325Y221349D01*
X402315Y221331D01*
X402288Y221294D01*
X402251Y221257D01*
X402214Y221201D01*
X402158Y221137D01*
X402094Y221063D01*
X402020Y220989D01*
X401936Y220915D01*
X401853Y220832D01*
X401641Y220665D01*
X401391Y220508D01*
X401114Y220369D01*
X401104D01*
X401077Y220351D01*
X401030Y220341D01*
X400975Y220314D01*
X400901Y220295D01*
X400808Y220268D01*
X400707Y220231D01*
X400596Y220203D01*
X400476Y220175D01*
X400337Y220138D01*
X400050Y220092D01*
X399727Y220055D01*
X399394Y220036D01*
X399385D01*
X399348D01*
X399292D01*
X399227Y220046D01*
X399135D01*
X399043Y220055D01*
X398922Y220064D01*
X398802Y220083D01*
X398534Y220129D01*
X398238Y220194D01*
X397942Y220286D01*
X397656Y220415D01*
X397646Y220425D01*
X397619Y220434D01*
X397582Y220452D01*
X397536Y220489D01*
X397471Y220526D01*
X397397Y220573D01*
X397230Y220693D01*
X397046Y220850D01*
X396861Y221035D01*
X396676Y221248D01*
X396519Y221497D01*
X396509Y221506D01*
X396500Y221534D01*
X396482Y221571D01*
X396454Y221617D01*
X396426Y221691D01*
X396398Y221765D01*
X396361Y221858D01*
X396324Y221959D01*
X396287Y222070D01*
X396250Y222191D01*
X396195Y222449D01*
X396149Y222745D01*
X396130Y223050D01*
Y223143D01*
X396139Y223208D01*
X396149Y223291D01*
X396158Y223393D01*
X396167Y223494D01*
X396195Y223614D01*
X396250Y223864D01*
X396334Y224141D01*
X396389Y224280D01*
X396454Y224410D01*
X396537Y224539D01*
X396620Y224668D01*
X396629Y224678D01*
X396639Y224696D01*
X396666Y224733D01*
X396713Y224779D01*
X396759Y224826D01*
X396824Y224890D01*
X396898Y224955D01*
X396972Y225029D01*
X397064Y225103D01*
X397175Y225177D01*
X397286Y225260D01*
X397406Y225334D01*
X397545Y225399D01*
X397683Y225473D01*
X397831Y225528D01*
X397998Y225584D01*
X398192Y224752D01*
X398183D01*
X398164Y224742D01*
X398127Y224724D01*
X398081Y224705D01*
X398026Y224687D01*
X397952Y224659D01*
X397804Y224585D01*
X397637Y224493D01*
X397471Y224382D01*
X397314Y224243D01*
X397175Y224095D01*
X397156Y224077D01*
X397119Y224021D01*
X397073Y223929D01*
X397009Y223809D01*
X396953Y223651D01*
X396898Y223476D01*
X396861Y223263D01*
X396851Y223032D01*
Y222958D01*
X396861Y222912D01*
Y222847D01*
X396870Y222773D01*
X396898Y222597D01*
X396935Y222403D01*
X396999Y222200D01*
X397092Y221987D01*
X397212Y221793D01*
Y221784D01*
X397230Y221775D01*
X397277Y221710D01*
X397351Y221627D01*
X397462Y221525D01*
X397600Y221405D01*
X397757Y221294D01*
X397952Y221192D01*
X398164Y221100D01*
X398173D01*
X398192Y221090D01*
X398220Y221081D01*
X398266Y221072D01*
X398321Y221053D01*
X398386Y221035D01*
X398543Y221007D01*
X398728Y220970D01*
X398932Y220933D01*
X399154Y220915D01*
X399394Y220905D01*
X399403D01*
X399431D01*
X399477D01*
X399533D01*
X399597Y220915D01*
X399680D01*
X399773Y220924D01*
X399875Y220933D01*
X400097Y220961D01*
X400337Y221007D01*
X400577Y221063D01*
X400818Y221137D01*
X400827D01*
X400845Y221146D01*
X400873Y221164D01*
X400919Y221183D01*
X401030Y221238D01*
X401160Y221322D01*
X401308Y221423D01*
X401465Y221553D01*
X401604Y221701D01*
X401733Y221876D01*
Y221886D01*
X401742Y221904D01*
X401761Y221932D01*
X401779Y221969D01*
X401798Y222015D01*
X401825Y222070D01*
X401881Y222200D01*
X401936Y222366D01*
X401983Y222551D01*
X402020Y222755D01*
X402029Y222967D01*
Y223032D01*
X402020Y223087D01*
Y223152D01*
X402010Y223217D01*
X401973Y223383D01*
X401927Y223577D01*
X401853Y223772D01*
X401752Y223975D01*
X401696Y224077D01*
X401622Y224169D01*
X401613Y224178D01*
X401604Y224188D01*
X401576Y224215D01*
X401548Y224252D01*
X401502Y224289D01*
X401446Y224336D01*
X401391Y224391D01*
X401317Y224437D01*
X401234Y224493D01*
X401141Y224557D01*
X401049Y224613D01*
X400938Y224668D01*
X400818Y224715D01*
X400688Y224761D01*
X400550Y224807D01*
X400402Y224844D01*
X400614Y225695D01*
X400624D01*
X400661Y225686D01*
D02*
G37*
G36*
X402639Y215275D02*
X396241D01*
Y216126D01*
X401881D01*
Y219278D01*
X402639D01*
Y215275D01*
D02*
G37*
G36*
X400808Y213916D02*
X400882D01*
X401058Y213897D01*
X401261Y213879D01*
X401474Y213842D01*
X401668Y213786D01*
X401853Y213722D01*
X401862D01*
X401872Y213712D01*
X401927Y213685D01*
X402001Y213638D01*
X402103Y213574D01*
X402205Y213481D01*
X402315Y213380D01*
X402426Y213250D01*
X402519Y213102D01*
X402528Y213084D01*
X402556Y213028D01*
X402593Y212945D01*
X402630Y212825D01*
X402676Y212677D01*
X402713Y212511D01*
X402741Y212326D01*
X402750Y212122D01*
Y212039D01*
X402741Y211984D01*
X402732Y211910D01*
X402722Y211835D01*
X402685Y211641D01*
X402630Y211438D01*
X402547Y211225D01*
X402491Y211114D01*
X402426Y211013D01*
X402352Y210920D01*
X402269Y210828D01*
X402260Y210819D01*
X402251Y210809D01*
X402214Y210791D01*
X402177Y210763D01*
X402131Y210726D01*
X402066Y210689D01*
X401992Y210652D01*
X401909Y210606D01*
X401816Y210569D01*
X401705Y210532D01*
X401594Y210495D01*
X401465Y210458D01*
X401326Y210439D01*
X401169Y210412D01*
X401012Y210403D01*
X400836D01*
X400725Y211170D01*
X400734D01*
X400753D01*
X400790D01*
X400845Y211179D01*
X400901Y211188D01*
X400966D01*
X401123Y211216D01*
X401289Y211244D01*
X401456Y211299D01*
X401604Y211355D01*
X401668Y211392D01*
X401724Y211438D01*
X401733Y211447D01*
X401761Y211484D01*
X401807Y211540D01*
X401853Y211614D01*
X401909Y211715D01*
X401946Y211826D01*
X401983Y211965D01*
X401992Y212113D01*
Y212168D01*
X401983Y212224D01*
X401973Y212307D01*
X401955Y212390D01*
X401936Y212483D01*
X401899Y212575D01*
X401853Y212668D01*
X401844Y212677D01*
X401825Y212705D01*
X401788Y212742D01*
X401752Y212797D01*
X401687Y212843D01*
X401622Y212899D01*
X401548Y212945D01*
X401456Y212982D01*
X401446D01*
X401409Y213001D01*
X401345Y213010D01*
X401261Y213028D01*
X401151Y213047D01*
X401012Y213056D01*
X400845Y213074D01*
X400651D01*
X396241D01*
Y213925D01*
X400605D01*
X400614D01*
X400642D01*
X400679D01*
X400734D01*
X400808Y213916D01*
D02*
G37*
G36*
X400661Y209783D02*
X400716Y209764D01*
X400790Y209737D01*
X400873Y209709D01*
X400975Y209672D01*
X401086Y209626D01*
X401206Y209570D01*
X401465Y209441D01*
X401724Y209275D01*
X401853Y209173D01*
X401983Y209071D01*
X402094Y208960D01*
X402205Y208831D01*
X402214Y208822D01*
X402232Y208803D01*
X402251Y208757D01*
X402288Y208710D01*
X402334Y208637D01*
X402380Y208563D01*
X402426Y208461D01*
X402473Y208359D01*
X402528Y208239D01*
X402574Y208110D01*
X402621Y207971D01*
X402667Y207823D01*
X402704Y207666D01*
X402722Y207499D01*
X402741Y207324D01*
X402750Y207139D01*
Y207037D01*
X402741Y206963D01*
Y206880D01*
X402732Y206778D01*
X402713Y206667D01*
X402695Y206538D01*
X402648Y206270D01*
X402574Y205992D01*
X402473Y205715D01*
X402408Y205585D01*
X402334Y205456D01*
X402325Y205447D01*
X402315Y205428D01*
X402288Y205391D01*
X402251Y205354D01*
X402214Y205299D01*
X402158Y205234D01*
X402094Y205160D01*
X402020Y205086D01*
X401936Y205012D01*
X401853Y204929D01*
X401641Y204763D01*
X401391Y204606D01*
X401114Y204467D01*
X401104D01*
X401077Y204448D01*
X401030Y204439D01*
X400975Y204411D01*
X400901Y204393D01*
X400808Y204365D01*
X400707Y204328D01*
X400596Y204300D01*
X400476Y204273D01*
X400337Y204236D01*
X400050Y204189D01*
X399727Y204152D01*
X399394Y204134D01*
X399385D01*
X399348D01*
X399292D01*
X399227Y204143D01*
X399135D01*
X399043Y204152D01*
X398922Y204162D01*
X398802Y204180D01*
X398534Y204226D01*
X398238Y204291D01*
X397942Y204384D01*
X397656Y204513D01*
X397646Y204522D01*
X397619Y204531D01*
X397582Y204550D01*
X397536Y204587D01*
X397471Y204624D01*
X397397Y204670D01*
X397230Y204790D01*
X397046Y204948D01*
X396861Y205133D01*
X396676Y205345D01*
X396519Y205595D01*
X396509Y205604D01*
X396500Y205632D01*
X396482Y205669D01*
X396454Y205715D01*
X396426Y205789D01*
X396398Y205863D01*
X396361Y205955D01*
X396324Y206057D01*
X396287Y206168D01*
X396250Y206288D01*
X396195Y206547D01*
X396149Y206843D01*
X396130Y207148D01*
Y207241D01*
X396139Y207305D01*
X396149Y207388D01*
X396158Y207490D01*
X396167Y207592D01*
X396195Y207712D01*
X396250Y207962D01*
X396334Y208239D01*
X396389Y208378D01*
X396454Y208507D01*
X396537Y208637D01*
X396620Y208766D01*
X396629Y208775D01*
X396639Y208794D01*
X396666Y208831D01*
X396713Y208877D01*
X396759Y208923D01*
X396824Y208988D01*
X396898Y209053D01*
X396972Y209127D01*
X397064Y209200D01*
X397175Y209275D01*
X397286Y209358D01*
X397406Y209432D01*
X397545Y209496D01*
X397683Y209570D01*
X397831Y209626D01*
X397998Y209681D01*
X398192Y208849D01*
X398183D01*
X398164Y208840D01*
X398127Y208822D01*
X398081Y208803D01*
X398026Y208785D01*
X397952Y208757D01*
X397804Y208683D01*
X397637Y208590D01*
X397471Y208479D01*
X397314Y208341D01*
X397175Y208193D01*
X397156Y208174D01*
X397119Y208119D01*
X397073Y208026D01*
X397009Y207906D01*
X396953Y207749D01*
X396898Y207573D01*
X396861Y207361D01*
X396851Y207129D01*
Y207056D01*
X396861Y207009D01*
Y206945D01*
X396870Y206871D01*
X396898Y206695D01*
X396935Y206501D01*
X396999Y206297D01*
X397092Y206085D01*
X397212Y205891D01*
Y205881D01*
X397230Y205872D01*
X397277Y205807D01*
X397351Y205724D01*
X397462Y205623D01*
X397600Y205502D01*
X397757Y205391D01*
X397952Y205290D01*
X398164Y205197D01*
X398173D01*
X398192Y205188D01*
X398220Y205179D01*
X398266Y205170D01*
X398321Y205151D01*
X398386Y205133D01*
X398543Y205105D01*
X398728Y205068D01*
X398932Y205031D01*
X399154Y205012D01*
X399394Y205003D01*
X399403D01*
X399431D01*
X399477D01*
X399533D01*
X399597Y205012D01*
X399680D01*
X399773Y205021D01*
X399875Y205031D01*
X400097Y205058D01*
X400337Y205105D01*
X400577Y205160D01*
X400818Y205234D01*
X400827D01*
X400845Y205243D01*
X400873Y205262D01*
X400919Y205280D01*
X401030Y205336D01*
X401160Y205419D01*
X401308Y205521D01*
X401465Y205650D01*
X401604Y205798D01*
X401733Y205974D01*
Y205983D01*
X401742Y206002D01*
X401761Y206029D01*
X401779Y206066D01*
X401798Y206112D01*
X401825Y206168D01*
X401881Y206297D01*
X401936Y206464D01*
X401983Y206649D01*
X402020Y206852D01*
X402029Y207065D01*
Y207129D01*
X402020Y207185D01*
Y207250D01*
X402010Y207314D01*
X401973Y207481D01*
X401927Y207675D01*
X401853Y207869D01*
X401752Y208073D01*
X401696Y208174D01*
X401622Y208267D01*
X401613Y208276D01*
X401604Y208285D01*
X401576Y208313D01*
X401548Y208350D01*
X401502Y208387D01*
X401446Y208433D01*
X401391Y208489D01*
X401317Y208535D01*
X401234Y208590D01*
X401141Y208655D01*
X401049Y208710D01*
X400938Y208766D01*
X400818Y208812D01*
X400688Y208859D01*
X400550Y208905D01*
X400402Y208942D01*
X400614Y209792D01*
X400624D01*
X400661Y209783D01*
D02*
G37*
G36*
X402639Y199373D02*
X396241D01*
Y200223D01*
X401881D01*
Y203376D01*
X402639D01*
Y199373D01*
D02*
G37*
G36*
X400808Y198013D02*
X400882D01*
X401058Y197995D01*
X401261Y197976D01*
X401474Y197939D01*
X401668Y197884D01*
X401853Y197819D01*
X401862D01*
X401872Y197810D01*
X401927Y197782D01*
X402001Y197736D01*
X402103Y197671D01*
X402205Y197579D01*
X402315Y197477D01*
X402426Y197348D01*
X402519Y197200D01*
X402528Y197181D01*
X402556Y197126D01*
X402593Y197043D01*
X402630Y196922D01*
X402676Y196775D01*
X402713Y196608D01*
X402741Y196423D01*
X402750Y196220D01*
Y196136D01*
X402741Y196081D01*
X402732Y196007D01*
X402722Y195933D01*
X402685Y195739D01*
X402630Y195536D01*
X402547Y195323D01*
X402491Y195212D01*
X402426Y195110D01*
X402352Y195018D01*
X402269Y194925D01*
X402260Y194916D01*
X402251Y194907D01*
X402214Y194888D01*
X402177Y194861D01*
X402131Y194824D01*
X402066Y194787D01*
X401992Y194750D01*
X401909Y194703D01*
X401816Y194667D01*
X401705Y194629D01*
X401594Y194592D01*
X401465Y194555D01*
X401326Y194537D01*
X401169Y194509D01*
X401012Y194500D01*
X400836D01*
X400725Y195267D01*
X400734D01*
X400753D01*
X400790D01*
X400845Y195277D01*
X400901Y195286D01*
X400966D01*
X401123Y195314D01*
X401289Y195341D01*
X401456Y195397D01*
X401604Y195452D01*
X401668Y195489D01*
X401724Y195536D01*
X401733Y195545D01*
X401761Y195582D01*
X401807Y195637D01*
X401853Y195711D01*
X401909Y195813D01*
X401946Y195924D01*
X401983Y196063D01*
X401992Y196210D01*
Y196266D01*
X401983Y196321D01*
X401973Y196405D01*
X401955Y196488D01*
X401936Y196580D01*
X401899Y196673D01*
X401853Y196765D01*
X401844Y196775D01*
X401825Y196802D01*
X401788Y196839D01*
X401752Y196895D01*
X401687Y196941D01*
X401622Y196996D01*
X401548Y197043D01*
X401456Y197080D01*
X401446D01*
X401409Y197098D01*
X401345Y197107D01*
X401261Y197126D01*
X401151Y197144D01*
X401012Y197153D01*
X400845Y197172D01*
X400651D01*
X396241D01*
Y198023D01*
X400605D01*
X400614D01*
X400642D01*
X400679D01*
X400734D01*
X400808Y198013D01*
D02*
G37*
G54D10*
X780000Y450000D02*
G03*
X780000Y450000I-30000J0D01*
G01*
X777634Y50460D02*
G03*
X777634Y50460I-30000J0D01*
G01*
X80000Y50000D02*
G03*
X80000Y50000I-30000J0D01*
G01*
Y450000D02*
G03*
X80000Y450000I-30000J0D01*
G01*
X168800Y190000D02*
G03*
X168800Y190000I-31500J0D01*
G01*
X485251Y265998D02*
Y321006D01*
X460251Y265998D02*
Y321006D01*
X349200Y15540D02*
X450800D01*
Y44750D01*
X349200Y15540D02*
Y44750D01*
Y95550D02*
Y146350D01*
X360630D01*
X439370D02*
X450800D01*
Y95550D02*
Y146350D01*
X212540Y65039D02*
X215039Y62540D01*
X220038D01*
X222537Y65039D01*
Y75036D01*
X220038Y77535D01*
X215039D01*
X212540Y75036D01*
Y72537D01*
X215039Y70038D01*
X222537D01*
X227535D02*
X237532D01*
X242530Y62540D02*
X247529D01*
X245030D01*
Y77535D01*
X242530Y75036D01*
X265023Y62540D02*
X255026D01*
X265023Y72537D01*
Y75036D01*
X262524Y77535D01*
X257525D01*
X255026Y75036D01*
X270021Y77535D02*
Y67538D01*
X275020Y62540D01*
X280018Y67538D01*
Y77535D01*
X612540Y32537D02*
X632533D01*
X622537Y42533D02*
Y22540D01*
X662540Y32540D02*
X682533D01*
X162540D02*
X182533D01*
X112540Y32537D02*
X132534D01*
X122537Y42533D02*
Y22540D01*
X471000Y348828D02*
X468461Y351367D01*
X463382D01*
X460843Y348828D01*
Y338672D01*
X463382Y336133D01*
X468461D01*
X471000Y338672D01*
X476078Y336133D02*
X481157D01*
X478618D01*
Y351367D01*
X476078Y348828D01*
X386804Y311618D02*
Y298922D01*
X389343Y296383D01*
X394422D01*
X396961Y298922D01*
Y311618D01*
X412196Y296383D02*
X402039D01*
X412196Y306539D01*
Y309078D01*
X409657Y311618D01*
X404578D01*
X402039Y309078D01*
X262554Y192132D02*
Y207367D01*
X270172D01*
X272711Y204828D01*
Y199750D01*
X270172Y197211D01*
X262554D01*
X267633D02*
X272711Y192132D01*
X285407D02*
Y207367D01*
X277789Y199750D01*
X287946D01*
X414118Y327804D02*
X398882D01*
Y335422D01*
X401422Y337961D01*
X406500D01*
X409039Y335422D01*
Y327804D01*
Y332882D02*
X414118Y337961D01*
Y353196D02*
Y343039D01*
X403961Y353196D01*
X401422D01*
X398882Y350657D01*
Y345578D01*
X401422Y343039D01*
X78961Y194578D02*
X76422Y197118D01*
X71343D01*
X68804Y194578D01*
Y184422D01*
X71343Y181882D01*
X76422D01*
X78961Y184422D01*
X94196Y181882D02*
X84039D01*
X94196Y192039D01*
Y194578D01*
X91657Y197118D01*
X86578D01*
X84039Y194578D01*
X310643Y122532D02*
Y137767D01*
X318261D01*
X320800Y135228D01*
Y130150D01*
X318261Y127611D01*
X310643D01*
X315722D02*
X320800Y122532D01*
X325878D02*
X330957D01*
X328418D01*
Y137767D01*
X325878Y135228D01*
X175500Y298485D02*
Y283250D01*
X183118D01*
X185657Y285789D01*
Y295946D01*
X183118Y298485D01*
X175500D01*
X190735Y283250D02*
X195813D01*
X193274D01*
Y298485D01*
X190735Y295946D01*
X607750Y338985D02*
Y323750D01*
X615368D01*
X617907Y326289D01*
Y336446D01*
X615368Y338985D01*
X607750D01*
X633142Y323750D02*
X622985D01*
X633142Y333907D01*
Y336446D01*
X630603Y338985D01*
X625524D01*
X622985Y336446D01*
X606750Y288235D02*
Y273000D01*
X614367D01*
X616907Y275539D01*
Y285696D01*
X614367Y288235D01*
X606750D01*
X621985Y285696D02*
X624524Y288235D01*
X629603D01*
X632142Y285696D01*
Y283157D01*
X629603Y280618D01*
X627063D01*
X629603D01*
X632142Y278078D01*
Y275539D01*
X629603Y273000D01*
X624524D01*
X621985Y275539D01*
X171250Y337485D02*
Y322250D01*
X178867D01*
X181407Y324789D01*
Y334946D01*
X178867Y337485D01*
X171250D01*
X194103Y322250D02*
Y337485D01*
X186485Y329868D01*
X196642D01*
X567500Y93500D02*
Y108735D01*
X572578Y103657D01*
X577657Y108735D01*
Y93500D01*
X215250Y107985D02*
Y97828D01*
X220328Y92750D01*
X225407Y97828D01*
Y107985D01*
X230485Y92750D02*
X235563D01*
X233024D01*
Y102907D01*
X230485D01*
X243181Y92750D02*
Y102907D01*
X250798D01*
X253338Y100367D01*
Y92750D01*
X80708Y418015D02*
Y402780D01*
X90865D01*
X95943Y418015D02*
Y402780D01*
X103561D01*
X106100Y405319D01*
Y415476D01*
X103561Y418015D01*
X95943D01*
X111178Y402780D02*
Y418015D01*
X118796D01*
X121335Y415476D01*
Y410397D01*
X118796Y407858D01*
X111178D01*
X116257D02*
X121335Y402780D01*
X126413D02*
X131492D01*
X128952D01*
Y418015D01*
X126413Y415476D01*
X659500Y420485D02*
Y405250D01*
X669657D01*
X674735Y420485D02*
Y405250D01*
X682353D01*
X684892Y407789D01*
Y417946D01*
X682353Y420485D01*
X674735D01*
X689970Y405250D02*
Y420485D01*
X697588D01*
X700127Y417946D01*
Y412868D01*
X697588Y410328D01*
X689970D01*
X695049D02*
X700127Y405250D01*
X715362D02*
X705205D01*
X715362Y415407D01*
Y417946D01*
X712823Y420485D01*
X707744D01*
X705205Y417946D01*
X450157Y452539D02*
Y462696D01*
X447617Y465235D01*
X442539D01*
X440000Y462696D01*
Y452539D01*
X442539Y450000D01*
X447617D01*
X445078Y455078D02*
X450157Y450000D01*
X447617D02*
X450157Y452539D01*
X455235Y450000D02*
X460313D01*
X457774D01*
Y465235D01*
X455235Y462696D01*
X350157Y452539D02*
Y462696D01*
X347618Y465235D01*
X342539D01*
X340000Y462696D01*
Y452539D01*
X342539Y450000D01*
X347618D01*
X345078Y455078D02*
X350157Y450000D01*
X347618D02*
X350157Y452539D01*
X365392Y450000D02*
X355235D01*
X365392Y460157D01*
Y462696D01*
X362853Y465235D01*
X357774D01*
X355235Y462696D01*
X550157Y452539D02*
Y462696D01*
X547617Y465235D01*
X542539D01*
X540000Y462696D01*
Y452539D01*
X542539Y450000D01*
X547617D01*
X545078Y455078D02*
X550157Y450000D01*
X547617D02*
X550157Y452539D01*
X555235Y462696D02*
X557774Y465235D01*
X562853D01*
X565392Y462696D01*
Y460157D01*
X562853Y457617D01*
X560313D01*
X562853D01*
X565392Y455078D01*
Y452539D01*
X562853Y450000D01*
X557774D01*
X555235Y452539D01*
X250157D02*
Y462696D01*
X247618Y465235D01*
X242539D01*
X240000Y462696D01*
Y452539D01*
X242539Y450000D01*
X247618D01*
X245078Y455078D02*
X250157Y450000D01*
X247618D02*
X250157Y452539D01*
X262853Y450000D02*
Y465235D01*
X255235Y457617D01*
X265392D01*
X364000Y327500D02*
X348765D01*
Y335117D01*
X351304Y337657D01*
X356382D01*
X358922Y335117D01*
Y327500D01*
Y332578D02*
X364000Y337657D01*
X351304Y342735D02*
X348765Y345274D01*
Y350353D01*
X351304Y352892D01*
X353843D01*
X356382Y350353D01*
Y347813D01*
Y350353D01*
X358922Y352892D01*
X361461D01*
X364000Y350353D01*
Y345274D01*
X361461Y342735D01*
X459000Y201750D02*
Y216985D01*
X466618D01*
X469157Y214446D01*
Y209368D01*
X466618Y206828D01*
X459000D01*
X464078D02*
X469157Y201750D01*
X484392Y216985D02*
X474235D01*
Y209368D01*
X479313Y211907D01*
X481853D01*
X484392Y209368D01*
Y204289D01*
X481853Y201750D01*
X476774D01*
X474235Y204289D01*
G54D11*
X103000Y345362D02*
G03*
X121000Y363396I-17J18017D01*
G01*
X78918D02*
G03*
X96952Y345362I18034J0D01*
G01*
Y394500D02*
G03*
X78918Y376500I-17J-18017D01*
G01*
X121000Y376500D02*
G03*
X103000Y394500I-18000J-0D01*
G01*
X721000Y376500D02*
G03*
X703000Y394500I-18000J-0D01*
G01*
X696952Y394500D02*
G03*
X678918Y376500I-17J-18017D01*
G01*
X678918Y363396D02*
G03*
X696952Y345362I18034J0D01*
G01*
X703000D02*
G03*
X721000Y363396I-17J18017D01*
G01*
X96952Y345362D02*
X103000D01*
X78918Y363396D02*
Y376500D01*
X96952Y394500D02*
X103000D01*
X121000Y363396D02*
Y376500D01*
X721000Y363396D02*
Y376500D01*
X696952Y394500D02*
X703000D01*
X678918Y363396D02*
Y376500D01*
X696952Y345362D02*
X703000D01*
G54D12*
X363150Y281100D02*
G03*
X363150Y281100I-1250J0D01*
G01*
X551250Y438500D02*
G03*
X551250Y438500I-1250J0D01*
G01*
X251250D02*
G03*
X251250Y438500I-1250J0D01*
G01*
G54D13*
X393650Y287150D02*
G03*
X406350Y287150I6350J0D01*
G01*
X460509Y378981D02*
G03*
X460509Y421019I-10510J21019D01*
G01*
X441272Y421819D02*
G03*
X436964Y419553I8728J-21819D01*
G01*
Y380447D02*
G03*
X441272Y378181I13036J19553D01*
G01*
X360509Y378981D02*
G03*
X360509Y421019I-10510J21019D01*
G01*
X341272Y421819D02*
G03*
X336965Y419553I8728J-21819D01*
G01*
Y380447D02*
G03*
X341272Y378181I13036J19553D01*
G01*
X539003Y420769D02*
G03*
X536650Y419340I10996J-20769D01*
G01*
Y380660D02*
G03*
X540061Y378705I13350J19340D01*
G01*
X559943Y378707D02*
G03*
X561000Y420767I-9943J21293D01*
G01*
X239004Y420769D02*
G03*
X236650Y419340I10996J-20769D01*
G01*
Y380660D02*
G03*
X240061Y378705I13350J19340D01*
G01*
X259943Y378707D02*
G03*
X261000Y420767I-9943J21293D01*
G01*
X224600Y341750D02*
X275400D01*
X224600Y318250D02*
Y341750D01*
Y318250D02*
X275400D01*
Y341750D01*
X234370Y318250D02*
Y341750D01*
X233100Y318250D02*
Y341750D01*
X230560Y318250D02*
Y341750D01*
X231830Y318250D02*
Y341750D01*
X373500Y174120D02*
X426500D01*
X406350Y287150D02*
X426500D01*
X373500D02*
X393650D01*
X426500Y174120D02*
Y287150D01*
X373500Y174120D02*
Y287150D01*
X493000Y202000D02*
Y204000D01*
X506500Y202000D02*
Y204000D01*
X311000Y206000D02*
Y208000D01*
X297500Y206000D02*
Y208000D01*
X568170Y268250D02*
Y291750D01*
X569440Y268250D02*
Y291750D01*
X566900Y268250D02*
Y291750D01*
X565630Y268250D02*
Y291750D01*
X524600Y268250D02*
Y291750D01*
X575400D01*
Y268250D02*
Y291750D01*
X524600Y268250D02*
X575400D01*
X531830Y318250D02*
Y341750D01*
X530560Y318250D02*
Y341750D01*
X533100Y318250D02*
Y341750D01*
X534370Y318250D02*
Y341750D01*
X575400Y318250D02*
Y341750D01*
X524600Y318250D02*
X575400D01*
X524600D02*
Y341750D01*
X575400D01*
X268170Y278250D02*
Y301750D01*
X269440Y278250D02*
Y301750D01*
X266900Y278250D02*
Y301750D01*
X265630Y278250D02*
Y301750D01*
X224600Y278250D02*
Y301750D01*
X275400D01*
Y278250D02*
Y301750D01*
X224600Y278250D02*
X275400D01*
X436650Y380663D02*
Y419337D01*
X336650Y380663D02*
Y419337D01*
X536650Y380660D02*
Y419340D01*
X236650Y380660D02*
Y419340D01*
G54D14*
X390000Y323000D02*
Y357000D01*
X370000D02*
X390000D01*
X370000Y323000D02*
Y357000D01*
Y323000D02*
X390000D01*
X420000Y323000D02*
Y357000D01*
Y323000D02*
X440000D01*
Y357000D01*
X420000D02*
X440000D01*
G54D15*
X373000Y339000D02*
Y341000D01*
X387000Y339000D02*
Y341000D01*
X437000Y339000D02*
Y341000D01*
X423000Y339000D02*
Y341000D01*
G54D16*
X120790Y173488D02*
X127561D01*
X124176Y176874D02*
Y170103D01*
M02*
